<?xml version="1.0" standalone="no"?>
<!DOCTYPE svg PUBLIC "-//W3C//DTD SVG 20010904//EN"
 "http://www.w3.org/TR/2001/REC-SVG-20010904/DTD/svg10.dtd">
<svg version="1.0" xmlns="http://www.w3.org/2000/svg"
 width="684.000000pt" height="684.000000pt" viewBox="0 0 684.000000 684.000000"
 preserveAspectRatio="xMidYMid meet">
<metadata>
Created by potrace 1.14, written by Peter Selinger 2001-2017
</metadata>
<g transform="translate(0.000000,684.000000) scale(0.100000,-0.100000)"
fill="#000000" stroke="none">
<path d="M3168 6805 c-2 -2 -33 -7 -68 -10 -36 -3 -78 -8 -95 -10 -65 -8 -131
-17 -150 -21 -11 -2 -36 -7 -55 -10 -19 -4 -44 -9 -55 -11 -11 -2 -33 -6 -50
-9 -16 -3 -55 -12 -85 -20 -30 -8 -66 -17 -80 -20 -105 -22 -406 -133 -569
-211 -263 -124 -513 -282 -705 -443 -496 -417 -821 -873 -1041 -1460 -96 -257
-158 -533 -192 -848 -9 -84 -8 -557 1 -637 12 -107 23 -178 51 -340 2 -16 9
-45 14 -62 5 -18 8 -33 5 -33 -3 0 0 -8 5 -17 5 -10 11 -31 14 -48 13 -73 74
-264 135 -420 96 -247 304 -618 444 -790 9 -11 47 -58 84 -104 79 -98 68 -87
205 -227 101 -103 193 -189 256 -237 15 -12 44 -36 63 -54 19 -18 40 -33 47
-33 7 0 16 -6 20 -12 11 -18 186 -139 313 -216 82 -50 377 -193 476 -231 190
-74 400 -139 504 -156 14 -2 36 -7 50 -10 27 -6 219 -40 285 -50 139 -21 574
-28 730 -12 44 5 94 10 110 11 34 4 120 17 150 22 11 3 36 7 55 10 19 3 64 13
100 21 36 8 76 17 90 20 77 14 293 83 465 148 105 39 376 175 496 248 101 61
280 184 325 223 12 11 39 33 60 49 481 377 879 952 1084 1565 30 92 95 334
105 395 3 17 8 44 12 60 4 17 7 35 8 40 1 13 16 123 20 155 15 105 19 195 20
395 0 127 -3 264 -8 305 -4 41 -9 98 -12 125 -9 92 -45 283 -76 402 -17 65
-32 125 -34 133 -22 94 -127 365 -200 517 -76 156 -225 410 -288 488 -4 6 -39
52 -79 104 -39 51 -78 101 -87 111 -9 9 -42 46 -73 82 -96 109 -253 262 -347
338 -24 19 -74 59 -110 88 -68 54 -284 202 -356 242 -187 106 -403 208 -553
261 -155 55 -398 126 -457 134 -11 1 -33 5 -50 8 -51 11 -88 17 -130 23 -22 3
-47 7 -55 9 -8 2 -42 7 -75 10 -33 3 -76 9 -95 12 -39 6 -566 13 -572 8z m557
-109 c28 -2 68 -7 90 -10 22 -3 61 -8 86 -11 25 -3 56 -8 70 -11 13 -3 40 -7
59 -10 27 -3 223 -50 330 -78 71 -19 287 -98 380 -139 290 -128 530 -273 770
-466 100 -80 381 -355 440 -430 19 -24 42 -51 50 -60 21 -23 139 -184 187
-256 146 -218 282 -497 371 -760 39 -115 82 -267 87 -310 2 -11 8 -38 13 -60
11 -40 21 -88 27 -135 6 -49 18 -125 22 -145 17 -89 24 -535 10 -680 -13 -131
-16 -158 -23 -195 -3 -19 -8 -48 -10 -65 -11 -97 -72 -338 -125 -496 -68 -206
-202 -497 -293 -639 -97 -153 -188 -282 -263 -375 -98 -123 -319 -350 -433
-445 -41 -34 -84 -70 -95 -79 -108 -90 -351 -246 -515 -333 -139 -73 -429
-198 -459 -198 -6 0 -22 -5 -38 -12 -15 -6 -34 -12 -42 -14 -8 -1 -35 -9 -60
-18 -102 -32 -350 -87 -456 -100 -27 -4 -66 -9 -85 -11 -189 -26 -674 -26
-809 0 -13 2 -49 7 -80 11 -31 3 -59 8 -62 10 -4 2 -26 6 -50 9 -24 3 -91 17
-149 31 -58 13 -112 26 -120 28 -117 28 -398 133 -560 209 -155 72 -462 259
-574 348 -190 152 -423 372 -521 493 -22 27 -45 54 -50 60 -31 33 -144 188
-208 287 -149 231 -267 474 -355 734 -31 91 -72 227 -76 255 -1 8 -5 26 -9 40
-4 14 -9 36 -11 50 -3 14 -10 50 -16 80 -20 100 -35 205 -47 330 -14 149 -7
593 11 685 2 11 7 47 10 80 4 33 9 67 12 76 2 10 7 30 9 45 2 16 7 40 10 54 3
14 8 36 11 50 3 14 7 32 9 40 2 8 7 30 10 49 3 19 8 38 11 43 3 4 7 17 10 28
10 45 14 60 49 165 58 174 167 426 239 550 6 11 26 47 45 80 120 209 308 451
506 651 121 122 174 170 306 279 60 49 265 188 366 248 112 66 266 144 398
199 151 64 470 164 585 184 14 3 59 11 100 19 41 8 96 17 121 20 26 3 57 8 70
10 12 3 63 7 113 11 50 3 93 7 95 9 5 5 445 -3 506 -9z"/>
<path d="M3367 6534 c-1 -1 -53 -4 -114 -7 -62 -3 -117 -9 -123 -12 -5 -3 -10
-1 -10 5 0 6 -5 8 -10 5 -11 -7 -28 -10 -95 -19 -48 -6 -160 -24 -195 -31 -14
-3 -36 -7 -50 -10 -14 -2 -77 -18 -140 -35 -63 -17 -122 -32 -130 -35 -8 -2
-15 -4 -15 -5 0 -1 -7 -3 -15 -5 -20 -4 -128 -41 -165 -56 -16 -7 -32 -13 -35
-14 -3 -1 -18 -7 -33 -13 -16 -7 -30 -12 -33 -12 -24 0 -415 -205 -422 -222
-2 -4 -8 -8 -13 -8 -8 0 -100 -57 -134 -83 -5 -4 -55 -41 -110 -82 -152 -114
-315 -266 -470 -437 -90 -98 -258 -330 -339 -468 -100 -169 -262 -539 -291
-665 -1 -5 -5 -17 -8 -25 -7 -19 -45 -157 -51 -190 -3 -14 -7 -36 -11 -50 -13
-62 -42 -235 -49 -305 -17 -147 -22 -443 -11 -569 5 -67 16 -167 20 -187 2 -9
6 -40 10 -70 3 -30 12 -81 20 -114 7 -33 16 -76 19 -95 3 -19 13 -60 22 -90 8
-30 19 -71 24 -90 11 -44 93 -277 117 -333 27 -64 165 -341 172 -347 6 -5 20
-28 45 -75 14 -25 49 -78 56 -85 3 -3 18 -25 34 -50 29 -44 131 -184 151 -206
5 -6 35 -40 65 -75 160 -187 368 -372 601 -534 80 -57 96 -67 151 -97 13 -7
30 -18 38 -25 20 -15 253 -134 315 -160 28 -12 75 -31 105 -43 30 -12 64 -26
75 -30 64 -27 282 -92 355 -106 14 -3 41 -9 60 -14 38 -10 87 -19 139 -26 18
-2 36 -6 40 -9 4 -2 32 -7 62 -10 30 -3 70 -7 89 -9 174 -22 502 -23 680 -1
96 12 129 16 175 25 28 5 64 12 80 15 17 3 41 7 55 10 14 3 36 8 50 11 86 17
334 89 355 104 6 4 22 10 36 13 14 4 43 14 65 24 21 9 41 17 44 18 48 14 305
143 409 206 89 52 239 154 291 196 8 6 42 33 75 60 84 67 115 95 226 203 369
362 633 792 788 1285 41 130 75 265 86 340 3 22 7 47 10 55 2 8 6 35 9 60 3
25 8 55 11 68 4 22 8 63 21 197 6 66 6 379 -1 435 -2 19 -6 69 -10 110 -3 41
-9 86 -11 100 -3 14 -7 39 -10 55 -2 17 -9 55 -14 85 -6 30 -13 69 -15 85 -14
76 -80 301 -126 424 -229 617 -652 1153 -1194 1512 -174 116 -197 129 -350
204 -170 83 -411 179 -505 200 -8 2 -51 13 -95 25 -85 22 -93 24 -170 40 -89
18 -159 30 -205 35 -25 3 -61 7 -80 10 -49 7 -388 23 -393 19z m339 -38 c39
-4 80 -8 91 -10 11 -3 44 -7 74 -11 30 -4 77 -11 104 -17 28 -5 61 -11 75 -14
14 -3 70 -16 125 -30 55 -14 107 -27 115 -29 58 -12 290 -98 405 -150 469
-210 896 -550 1206 -959 51 -68 189 -271 189 -279 0 -3 17 -34 38 -68 46 -77
117 -222 167 -344 37 -89 113 -309 121 -352 2 -12 9 -34 14 -48 5 -14 7 -25 4
-25 -2 0 0 -8 5 -18 5 -10 12 -38 16 -62 4 -25 8 -47 10 -50 2 -3 6 -24 9 -46
4 -22 8 -49 10 -59 4 -20 16 -107 22 -155 24 -189 24 -582 0 -727 -6 -38 -16
-101 -22 -143 -2 -19 -13 -78 -24 -130 -11 -52 -23 -108 -26 -125 -3 -16 -10
-38 -15 -47 -5 -10 -8 -18 -5 -18 2 0 -18 -64 -44 -143 -149 -444 -385 -835
-705 -1167 -101 -105 -244 -235 -310 -282 -5 -4 -26 -20 -45 -36 -52 -43 -284
-202 -295 -202 -2 0 -28 -14 -57 -31 -207 -123 -594 -277 -788 -315 -14 -3
-43 -10 -65 -16 -22 -5 -49 -11 -60 -13 -11 -1 -47 -7 -80 -14 -89 -16 -197
-30 -289 -38 -104 -8 -419 -8 -516 0 -101 9 -225 25 -250 32 -8 2 -33 6 -54
10 -116 17 -350 80 -487 131 -41 14 -92 33 -114 41 -81 29 -370 177 -478 245
-99 62 -243 162 -257 178 -3 4 -15 13 -27 21 -93 64 -299 261 -433 414 -107
123 -283 372 -347 493 -69 129 -121 231 -136 269 -9 23 -25 61 -36 85 -44 97
-136 392 -156 501 -3 12 -7 33 -10 47 -13 59 -16 77 -19 105 -3 17 -7 46 -10
65 -35 212 -41 655 -11 821 2 13 7 44 9 69 3 25 8 56 11 70 3 14 7 39 10 55 2
17 7 41 10 55 3 14 10 45 15 70 18 92 89 319 135 435 118 299 268 558 473 815
91 115 349 374 452 455 41 33 80 63 85 67 6 5 35 26 65 48 30 22 60 43 65 48
53 44 368 219 480 267 358 153 664 232 1010 260 44 4 81 8 82 9 5 5 404 -2
469 -8z"/>
<path d="M3296 6285 c-51 -18 -85 -44 -114 -86 -19 -27 -23 -43 -19 -82 7 -83
45 -116 202 -178 105 -42 122 -54 135 -95 20 -59 -11 -105 -84 -125 -80 -22
-194 44 -211 121 -4 17 -12 29 -18 27 -13 -4 -12 -137 1 -149 20 -18 116 -36
188 -34 126 4 210 52 235 135 31 102 -26 173 -190 236 -137 53 -171 91 -140
159 21 45 106 64 169 38 40 -17 54 -32 81 -90 11 -23 24 -40 30 -37 5 4 9 35
9 71 l0 65 -37 16 c-50 21 -186 26 -237 8z"/>
<path d="M2846 6219 c-52 -41 -19 -107 49 -95 29 6 35 4 36 -11 3 -37 -3 -49
-32 -74 -23 -20 -27 -28 -16 -32 26 -10 75 35 88 80 30 109 -48 192 -125 132z"/>
<path d="M4136 6171 c-4 -6 6 -17 22 -25 33 -17 48 -48 57 -121 10 -77 16
-118 21 -145 18 -94 16 -116 -16 -194 -38 -91 -54 -102 -119 -84 -5 2 -10 -1
-11 -7 -1 -5 18 -17 42 -27 24 -9 85 -33 137 -53 51 -20 96 -33 100 -29 3 3
-3 11 -13 18 -61 36 -65 55 -26 141 9 22 21 50 24 61 4 12 66 68 139 125 129
102 133 104 184 104 68 0 75 18 15 40 -26 10 -71 29 -100 42 -30 14 -56 22
-59 20 -3 -3 5 -19 17 -35 31 -42 21 -62 -63 -130 -40 -31 -81 -65 -91 -74
-26 -24 -36 -23 -37 5 0 12 -2 29 -3 37 -2 8 -7 51 -11 94 -4 43 -8 87 -10 97
-5 24 21 44 55 41 16 -1 31 2 34 7 7 10 -71 38 -261 95 -12 4 -24 2 -27 -3z"/>
<path d="M2463 6110 c-4 -4 -30 -15 -58 -25 -27 -10 -54 -21 -60 -25 -5 -4
-36 -17 -68 -30 -32 -12 -56 -28 -54 -34 3 -6 11 -9 18 -8 43 11 57 10 75 -6
10 -10 57 -112 103 -226 74 -183 82 -210 72 -232 -6 -15 -20 -28 -31 -31 -18
-5 -29 -33 -14 -33 4 0 48 16 98 36 121 48 281 104 313 110 40 7 42 11 36 62
-3 26 -6 58 -7 72 -2 14 -4 30 -4 37 -4 26 -29 0 -39 -40 -17 -61 -45 -92
-118 -127 -51 -24 -68 -28 -89 -21 -34 14 -45 34 -110 201 -31 80 -61 152 -66
161 -15 28 -22 87 -13 104 5 9 20 22 33 28 12 7 23 16 24 21 1 12 -29 16 -41
6z"/>
<path d="M5080 5716 c0 -19 -12 -34 -42 -57 -24 -17 -50 -34 -58 -37 -8 -3
-43 -25 -77 -49 -35 -24 -65 -43 -67 -43 -2 0 -36 -22 -77 -49 -122 -80 -166
-96 -210 -77 -10 4 -20 3 -23 -2 -7 -11 167 -132 190 -132 12 0 10 7 -10 31
-43 51 -33 79 49 133 59 40 71 39 119 -5 11 -11 23 -19 26 -19 4 0 16 -8 28
-17 11 -10 30 -26 41 -35 17 -14 19 -22 11 -43 -5 -14 -7 -25 -4 -25 4 0 1 -7
-6 -15 -6 -8 -10 -18 -7 -22 3 -4 -2 -24 -12 -43 -17 -37 -53 -52 -74 -31 -12
12 -47 15 -47 5 0 -4 8 -14 19 -23 10 -9 45 -39 77 -68 32 -28 75 -65 94 -82
40 -35 58 -28 35 15 -19 37 -19 84 1 154 8 30 17 69 20 85 3 17 25 102 49 190
62 231 60 207 17 242 -58 46 -62 47 -62 19z m-51 -206 c-17 -63 -32 -117 -34
-119 -5 -4 -131 85 -139 98 -3 5 31 32 77 61 117 75 122 78 124 76 1 -1 -12
-53 -28 -116z"/>
<path d="M1667 5683 l-49 -36 25 -14 c29 -15 47 -64 127 -358 5 -16 15 -56 24
-88 20 -74 20 -117 0 -146 -25 -35 -4 -45 31 -15 99 85 128 109 136 112 4 2 5
10 2 17 -4 12 -9 12 -33 0 -16 -8 -35 -15 -43 -15 -19 0 -57 31 -61 50 -2 8
-6 22 -9 30 -18 45 -23 86 -13 96 15 14 138 109 152 117 11 7 132 -65 146 -87
14 -20 8 -45 -14 -66 -14 -12 -18 -24 -12 -29 12 -12 262 151 256 167 -2 7 -7
10 -11 8 -20 -13 -66 -13 -99 -2 -21 8 -143 77 -271 155 -128 77 -234 141
-235 141 0 0 -23 -17 -49 -37z m166 -161 l97 -60 -37 -31 c-49 -41 -53 -44
-85 -65 l-26 -17 -17 58 c-46 154 -52 184 -41 180 6 -3 55 -32 109 -65z"/>
<path d="M3210 5405 c-129 -24 -200 -51 -268 -102 -22 -17 -50 -26 -85 -29
-68 -6 -82 -9 -142 -29 -73 -25 -149 -83 -182 -136 -25 -43 -32 -48 -75 -53
-62 -9 -136 -59 -166 -114 -14 -25 -26 -67 -29 -102 -5 -55 -9 -62 -39 -80
-40 -25 -92 -83 -106 -119 -16 -43 -21 -114 -9 -157 17 -62 64 -110 147 -150
81 -39 96 -66 39 -72 -41 -5 -53 -17 -47 -47 10 -52 118 -110 247 -132 60 -10
169 -7 210 7 35 11 39 10 130 -44 51 -31 96 -56 99 -56 3 0 47 -20 99 -45 120
-57 170 -103 182 -164 8 -42 14 -90 20 -163 8 -85 10 -81 -70 -94 -60 -9 -192
-52 -265 -87 -68 -32 -165 -91 -174 -105 -3 -5 105 -8 240 -8 135 1 251 -2
256 -6 15 -9 2 -122 -21 -186 -77 -210 -286 -372 -541 -418 -46 -8 -193 -8
-249 1 -25 4 -65 13 -89 21 -24 9 -46 14 -48 12 -11 -11 34 -52 85 -78 104
-52 189 -63 346 -46 l60 7 -35 -32 c-19 -17 -60 -43 -90 -58 -47 -22 -68 -26
-145 -26 -76 0 -99 4 -146 26 -31 15 -75 44 -98 64 -23 21 -44 35 -47 32 -11
-11 30 -79 73 -122 46 -46 129 -92 178 -98 34 -4 35 -8 11 -62 -10 -22 -19
-56 -20 -76 -1 -42 -16 -42 -17 -1 0 23 -9 31 -62 57 -72 35 -115 84 -120 137
-5 50 -12 55 -32 24 -28 -42 -11 -120 38 -173 l20 -22 -31 -26 c-39 -33 -50
-81 -28 -123 23 -45 64 -65 56 -27 -10 48 -9 57 15 81 22 22 32 25 94 23 66
-2 70 -3 76 -28 19 -76 92 -131 174 -131 57 0 131 39 131 69 0 13 -5 13 -50
-3 -36 -13 -91 -5 -118 17 -19 15 -40 59 -45 93 -5 35 25 100 62 132 31 27
171 116 174 111 28 -46 48 -93 40 -98 -78 -53 -125 -81 -156 -91 -21 -7 -41
-19 -44 -27 -10 -25 11 -68 32 -69 38 -1 156 52 207 94 33 25 36 31 23 42 -8
7 -15 16 -15 21 0 4 12 -3 27 -17 46 -43 150 -87 214 -92 104 -8 104 5 -1 55
-196 95 -274 234 -187 334 12 14 61 51 109 83 48 31 90 61 93 66 4 6 10 10 15
10 11 0 -28 -73 -71 -135 -27 -40 -45 -61 -105 -125 l-34 -36 27 -37 c30 -43
44 -46 66 -15 9 13 35 43 57 68 48 52 137 184 171 252 22 43 45 67 34 36 -2
-7 -6 -29 -9 -48 -14 -90 -64 -211 -142 -341 -19 -31 -34 -59 -34 -63 0 -3 15
-12 33 -20 76 -31 71 -33 124 51 l48 78 3 -53 c4 -65 -20 -162 -55 -222 -54
-92 -194 -200 -278 -214 -17 -2 -30 -5 -30 -6 0 -5 -48 -10 -105 -12 -172 -4
-342 54 -472 163 -28 24 -48 34 -50 27 -10 -29 9 -67 59 -115 l54 -51 -29 -7
c-74 -16 -129 -136 -87 -191 15 -19 16 -18 19 24 1 7 13 28 28 46 47 59 142
76 278 51 106 -20 193 -30 253 -29 l68 1 -30 -27 c-16 -15 -60 -48 -98 -73
-153 -101 -290 -135 -372 -92 -36 18 -42 5 -15 -33 24 -35 64 -50 128 -49 51
1 60 -2 62 -18 8 -56 75 -91 124 -65 28 15 25 30 -5 30 -34 0 -49 37 -27 65 9
11 43 33 76 50 69 33 139 76 144 88 2 4 10 7 18 7 8 0 14 4 14 9 0 5 16 18 35
30 l35 20 1 -27 c3 -123 62 -208 149 -213 43 -3 82 9 74 22 -3 5 -11 9 -17 7
-44 -8 -101 44 -118 106 -25 91 3 167 101 279 33 37 65 77 70 88 18 33 28 13
24 -49 -5 -90 -16 -113 -88 -180 -22 -21 -49 -46 -61 -58 -17 -15 -21 -28 -17
-52 2 -18 8 -35 13 -38 9 -5 142 76 153 95 4 6 12 11 17 11 10 0 5 -131 -6
-200 -20 -112 -114 -195 -232 -204 -26 -2 -50 -4 -53 -5 -2 -1 7 -9 20 -18 17
-12 44 -18 80 -17 89 0 170 47 229 132 l23 33 20 -33 c36 -61 108 -112 173
-123 22 -4 48 -9 58 -11 21 -4 87 25 87 38 0 9 -11 11 -58 8 -49 -2 -137 44
-167 88 -39 56 -65 153 -65 238 0 41 3 74 6 74 3 0 23 -13 43 -29 60 -47 120
-81 125 -72 3 5 8 24 11 43 5 31 2 38 -27 60 -105 80 -129 119 -136 222 l-5
81 88 -110 c103 -128 117 -158 118 -241 1 -80 -31 -128 -99 -146 -24 -7 -44
-16 -44 -20 0 -12 42 -20 76 -14 16 2 34 5 40 5 20 2 80 65 93 98 7 17 14 55
14 82 1 28 4 51 6 51 2 0 45 -26 95 -58 50 -33 121 -76 158 -96 37 -20 70 -46
73 -57 8 -25 -13 -52 -37 -46 -27 8 -31 -10 -6 -27 48 -34 109 -8 122 51 6 27
9 28 64 29 66 0 107 18 135 56 27 36 17 44 -27 23 -60 -29 -102 -27 -197 9
-81 30 -279 150 -279 168 0 4 8 8 18 9 141 6 194 13 308 38 96 22 149 19 204
-9 41 -21 80 -70 80 -102 0 -27 17 -21 28 10 11 34 6 69 -15 101 -19 30 -53
60 -68 61 -5 0 -16 4 -24 9 -11 7 -4 19 32 55 43 42 74 107 55 114 -4 2 -31
-17 -60 -42 -171 -149 -498 -196 -678 -98 -166 91 -243 209 -249 382 l-2 75
25 -40 c14 -22 26 -43 26 -48 0 -14 53 -67 67 -67 14 0 93 38 93 44 0 3 -19
37 -43 78 -66 112 -123 235 -134 288 -8 46 -10 99 -3 95 4 -3 25 -38 46 -80
59 -116 209 -305 243 -305 12 0 51 58 51 75 0 6 -23 35 -51 65 -73 80 -149
193 -149 221 0 6 17 -2 38 -18 20 -15 69 -50 109 -76 136 -91 142 -183 18
-302 -53 -50 -149 -106 -208 -120 -25 -7 -26 -8 -10 -20 31 -23 138 -3 226 42
57 28 133 102 162 156 11 20 23 37 28 37 13 0 149 -89 180 -119 39 -35 58 -84
51 -128 -14 -87 -82 -128 -171 -104 -47 13 -52 7 -23 -24 51 -54 149 -56 220
-4 77 56 98 160 52 259 l-20 45 47 11 c93 21 176 86 221 174 23 46 12 52 -28
14 -127 -120 -354 -131 -478 -22 -37 33 -37 52 1 38 25 -9 197 -7 252 3 74 14
193 84 193 113 0 13 -4 13 -27 0 -51 -26 -130 -35 -260 -32 -186 5 -299 40
-423 129 -146 106 -229 245 -246 412 l-7 65 194 1 c175 0 307 4 318 8 8 2
-101 65 -169 97 -36 17 -96 41 -135 54 -71 22 -83 25 -145 36 -70 12 -67 7
-63 97 9 207 32 242 222 334 75 37 167 86 205 109 59 37 72 41 90 32 34 -18
222 -15 287 5 71 21 148 72 172 114 l19 33 -26 10 c-14 5 -37 14 -51 20 -37
14 -22 34 46 61 78 31 142 93 159 153 31 110 -24 226 -132 280 -18 9 -22 21
-24 67 -4 121 -90 208 -222 225 -13 1 -25 4 -26 6 -81 131 -176 190 -335 204
-50 5 -73 13 -110 39 -47 33 -143 73 -196 82 -16 2 -41 7 -55 10 -55 11 -318
10 -380 -2z m272 -884 c4 -1 3 -13 -2 -28 -4 -16 -20 -66 -33 -113 -14 -47
-31 -98 -38 -115 l-12 -30 -14 45 c-8 25 -16 53 -19 63 -2 9 -6 25 -9 35 -10
37 -27 108 -29 122 -4 19 73 30 156 21z m-532 -106 c5 -3 26 -41 48 -85 l40
-80 -41 6 c-30 4 -50 15 -69 38 -24 27 -78 118 -78 130 0 6 89 -2 100 -9z
m1000 11 c0 -6 -64 -115 -82 -139 -8 -11 -31 -19 -61 -22 l-48 -5 21 30 c11
16 32 53 45 83 l25 53 50 3 c27 1 50 0 50 -3z m-784 -45 c23 -6 46 -17 51 -24
6 -6 18 -46 27 -87 26 -114 27 -118 17 -124 -9 -6 -96 83 -124 127 -21 32 -67
118 -67 124 0 6 45 -2 96 -16z m564 11 c0 -33 -140 -221 -181 -242 -18 -10
-19 -8 -15 17 3 15 8 46 11 68 3 22 11 56 18 75 6 19 11 39 12 44 0 19 155 57
155 38z m-760 -217 c100 -12 108 -16 177 -82 73 -70 74 -68 -22 -48 -72 15
-265 114 -265 136 0 6 17 5 110 -6z m950 -6 c-35 -29 -156 -99 -173 -99 -7 0
-17 -3 -21 -7 -3 -4 -12 -8 -19 -9 -7 -1 -32 -7 -57 -13 -25 -6 -48 -11 -53
-11 -4 0 24 32 62 70 39 39 78 70 88 70 22 1 97 11 100 14 2 1 24 3 50 4 l48
2 -25 -21z"/>
<path d="M5555 5291 c-3 -6 1 -21 9 -33 15 -24 16 -44 3 -65 -7 -11 -102 -86
-199 -158 -130 -96 -188 -135 -201 -135 -8 0 -26 10 -41 21 -48 37 -47 7 1
-46 25 -27 66 -77 91 -110 25 -33 47 -62 49 -64 2 -3 9 1 15 7 9 9 7 16 -5 30
-20 22 -22 52 -4 74 14 19 156 128 166 128 16 0 42 -44 43 -73 1 -18 -11 -58
-25 -89 -15 -32 -26 -59 -25 -61 2 -2 -4 -14 -12 -27 -9 -14 -24 -50 -35 -81
l-18 -56 31 -46 c18 -25 32 -48 32 -52 0 -3 7 -17 16 -30 19 -30 47 -23 35 8
-13 34 -6 72 24 142 26 59 57 150 62 180 3 17 6 31 8 33 2 2 22 -9 44 -24 86
-56 188 -38 225 40 39 83 3 168 -147 347 -119 141 -132 155 -142 140z m173
-232 c50 -65 60 -120 31 -168 -32 -53 -67 -68 -147 -62 -25 1 -142 113 -141
134 0 7 34 37 76 67 41 30 84 63 96 73 11 9 25 16 31 14 6 -2 30 -28 54 -58z"/>
<path d="M1210 5240 c-5 -10 -16 -24 -22 -32 -21 -22 -108 -138 -108 -143 0
-3 -7 -13 -15 -22 -48 -59 -143 -219 -134 -228 6 -6 15 -1 25 13 31 45 66 31
255 -94 96 -64 184 -126 197 -137 24 -22 28 -47 11 -79 -6 -12 -7 -24 -2 -29
6 -6 48 51 106 138 53 82 108 161 122 177 14 16 25 32 25 35 0 3 12 19 26 34
l25 28 -60 62 c-62 64 -85 69 -62 14 35 -82 23 -147 -39 -226 -56 -71 -74 -71
-181 1 -48 32 -91 63 -94 69 -6 9 75 132 96 144 17 11 59 13 65 4 3 -5 12 -9
20 -9 25 0 15 24 -22 50 -19 14 -41 30 -47 35 -36 31 -76 54 -81 46 -3 -5 1
-22 9 -37 23 -45 18 -67 -31 -142 l-47 -70 -86 60 c-47 33 -90 64 -95 69 -11
10 59 107 121 167 43 41 45 42 99 36 66 -7 69 4 12 43 -62 42 -76 45 -88 23z"/>
<path d="M769 4552 c-6 -15 -12 -31 -13 -37 -2 -5 -6 -17 -9 -25 -21 -48 -44
-129 -40 -134 12 -11 22 -6 28 15 11 32 61 58 93 48 15 -5 91 -30 170 -55 78
-26 142 -50 142 -53 0 -3 -115 -51 -255 -106 -277 -109 -262 -99 -280 -187 -3
-16 -8 -40 -11 -55 -16 -70 0 -96 26 -41 8 18 27 40 41 50 25 19 27 19 238
-35 117 -30 220 -62 229 -71 8 -8 18 -34 21 -57 6 -43 26 -64 28 -31 2 19 38
180 49 215 3 11 0 17 -10 17 -9 0 -18 -11 -22 -25 -3 -14 -18 -33 -33 -43 -28
-20 -54 -20 -122 -2 -24 7 -52 14 -61 16 -10 2 -26 6 -35 8 -10 2 -45 11 -78
20 -33 9 -71 19 -85 22 -26 6 -36 12 -29 18 4 4 213 87 442 176 79 31 111 48
117 64 4 11 5 24 1 28 -5 6 -369 133 -406 142 -75 18 -122 67 -106 109 8 20 7
27 -5 31 -10 4 -18 -4 -25 -22z"/>
<path d="M6047 4533 c-2 -4 -5 -23 -5 -42 -1 -42 -12 -52 -87 -80 -33 -13
-114 -43 -180 -68 -66 -24 -133 -50 -149 -58 -35 -16 -61 -9 -85 21 -10 13
-24 24 -30 24 -14 0 -14 -3 4 -42 8 -18 33 -82 55 -143 57 -151 79 -193 124
-237 64 -61 118 -82 211 -82 121 0 202 46 261 149 23 39 29 63 31 118 1 38 -3
81 -8 95 -6 15 -12 35 -14 45 -5 25 -107 290 -116 300 -4 5 -9 5 -12 0z m83
-269 c26 -84 25 -110 -2 -161 -36 -66 -75 -103 -143 -135 -76 -35 -157 -46
-220 -28 -102 29 -180 171 -120 219 14 10 89 42 167 70 79 29 152 56 163 61
52 24 121 47 127 44 4 -3 17 -34 28 -70z"/>
<path d="M625 3371 c-51 -22 -82 -84 -82 -166 -1 -86 44 -150 112 -160 71 -11
128 24 140 86 4 19 0 22 -30 22 -30 0 -35 -3 -35 -18 0 -17 -42 -47 -61 -43
-35 8 -59 53 -59 113 0 58 22 111 50 120 24 8 70 -18 70 -39 0 -18 22 -26 50
-19 13 4 19 11 16 20 -3 8 -6 19 -6 23 0 5 -14 22 -31 38 -32 30 -92 40 -134
23z"/>
<path d="M967 3362 c-44 -27 -69 -93 -64 -168 6 -75 29 -118 73 -139 98 -47
189 33 183 160 -7 132 -98 203 -192 147z m97 -52 c18 -20 36 -85 30 -113 -11
-61 -17 -76 -32 -90 -41 -37 -92 9 -94 83 -1 73 1 86 22 113 22 28 53 31 74 7z"/>
<path d="M1224 3365 c3 -9 19 -64 36 -123 58 -202 58 -202 90 -202 31 0 34 6
68 125 28 99 54 188 60 203 3 8 -7 12 -31 12 -41 0 -36 9 -68 -137 -22 -100
-33 -115 -42 -63 -3 14 -15 64 -27 113 l-22 87 -35 0 c-27 0 -34 -3 -29 -15z"/>
<path d="M1560 3210 c0 -106 4 -170 10 -171 6 0 42 0 80 0 139 0 130 -2 130
31 l0 30 -62 -1 c-93 -2 -90 -4 -86 43 l3 41 55 1 c49 1 55 3 58 24 4 26 -11
34 -70 36 -43 1 -43 1 -43 40 l0 39 68 1 c37 1 67 4 67 9 0 4 0 16 0 27 0 19
-7 20 -105 20 l-105 0 0 -170z"/>
<path d="M1860 3209 l0 -170 33 3 32 3 0 127 c0 131 7 146 34 72 8 -21 31 -75
52 -121 37 -81 39 -83 73 -83 34 0 35 1 38 43 2 23 2 99 0 170 l-3 127 -33 0
-32 0 1 -97 c1 -54 -1 -102 -3 -106 -2 -5 -25 39 -50 97 l-45 106 -48 0 -49 0
0 -171z"/>
<path d="M2220 3349 c0 -27 3 -30 28 -29 62 4 59 12 58 -137 l-1 -138 35 0 35
0 0 138 -1 137 28 1 c15 1 33 2 40 3 6 0 15 13 19 29 l7 27 -124 0 -124 0 0
-31z"/>
<path d="M4433 3360 c-18 -10 -42 -38 -54 -62 -18 -35 -21 -53 -16 -103 3 -34
14 -75 24 -92 29 -52 107 -78 154 -53 11 6 25 8 32 3 6 -4 20 -8 29 -8 16 -2
18 8 18 82 l0 83 -59 0 c-50 0 -59 -3 -64 -19 -6 -23 0 -31 22 -31 46 -1 49
-44 5 -61 -31 -11 -70 6 -79 35 -30 96 -3 197 50 191 30 -3 53 -18 58 -36 4
-15 12 -19 31 -16 36 4 39 11 22 46 -31 59 -112 78 -173 41z"/>
<path d="M4735 3318 c-10 -35 -19 -67 -21 -73 -7 -30 -45 -173 -50 -187 -4
-15 1 -18 30 -18 20 0 37 5 37 10 1 6 3 15 4 20 1 6 3 14 4 19 3 22 32 38 68
36 35 -1 39 -4 53 -43 13 -38 18 -42 47 -42 l32 0 -30 108 c-16 59 -37 135
-46 170 l-17 62 -46 0 -47 0 -18 -62z m82 -59 c2 -18 9 -43 14 -56 8 -21 6
-23 -26 -23 -39 0 -39 0 -24 55 20 79 26 83 36 24z"/>
<path d="M5040 3210 l0 -171 32 3 32 3 1 67 c0 67 0 68 27 68 19 0 29 -6 33
-22 4 -13 16 -44 28 -70 19 -43 24 -48 54 -48 l33 0 -21 53 c-12 28 -25 62
-30 75 -7 18 -4 28 11 45 38 40 38 104 0 141 -17 17 -36 22 -110 24 l-90 4 0
-172z m161 89 c12 -20 -6 -53 -32 -59 -28 -7 -58 -1 -60 11 -4 30 -5 55 -1 63
6 12 83 0 93 -15z"/>
<path d="M5380 3210 l0 -170 64 0 c82 0 107 10 142 56 25 33 29 45 29 113 0
64 -4 81 -24 110 -31 43 -75 61 -151 61 l-60 0 0 -170z m145 85 c14 -13 26
-32 26 -42 4 -58 -3 -100 -19 -123 -20 -27 -78 -45 -85 -26 -3 9 -2 207 2 214
6 12 57 -3 76 -23z"/>
<path d="M5700 3210 c0 -163 1 -170 20 -170 11 -1 54 -1 95 -1 41 0 82 0 90 1
11 0 15 9 13 29 -2 29 -4 30 -53 29 -102 -1 -100 -2 -99 37 1 20 4 38 7 41 3
3 29 6 59 7 50 2 53 4 56 30 4 29 3 29 -80 29 -38 0 -38 0 -38 42 l0 42 69 -2
c66 -3 69 -2 73 21 3 14 3 27 0 30 -3 3 -52 5 -109 5 l-103 0 0 -170z"/>
<path d="M6020 3300 c-1 -44 -1 -119 -1 -167 l-1 -88 34 0 33 0 0 134 -1 133
23 -48 c13 -27 41 -88 63 -136 38 -87 40 -88 75 -88 39 0 36 -11 36 145 0 30
0 87 0 126 l-1 70 -32 -3 -33 -3 -1 -95 c-1 -52 -2 -99 -3 -105 -1 -5 -22 38
-48 98 l-46 107 -48 0 -49 0 0 -80z"/>
<path d="M1246 2651 c-4 -6 -3 -19 3 -29 16 -30 -9 -64 -67 -94 -84 -44 -345
-159 -370 -164 -16 -3 -31 5 -52 28 -16 17 -32 29 -36 26 -9 -10 110 -278 124
-278 9 0 11 7 7 21 -22 67 -13 80 97 133 l92 45 17 -37 c10 -20 17 -39 16 -42
-1 -3 -36 -71 -77 -151 l-75 -146 31 -49 c17 -27 37 -60 45 -74 8 -14 18 -28
24 -32 15 -11 26 2 16 20 -16 29 -5 77 38 165 22 48 41 88 41 91 0 2 7 20 15
41 l16 36 32 -31 c80 -80 184 -74 237 12 35 57 22 127 -50 270 -16 31 -45 96
-65 145 -40 95 -49 111 -59 94z m106 -281 c11 -40 13 -64 9 -102 -2 -18 -42
-63 -69 -77 -31 -17 -91 -11 -124 11 -14 10 -40 47 -57 81 -33 68 -36 77 -22
77 5 0 55 22 112 49 l104 50 18 -22 c9 -12 23 -42 29 -67z"/>
<path d="M5556 2603 c-19 -20 -52 -71 -73 -112 -32 -63 -38 -85 -38 -137 0
-51 5 -67 28 -98 37 -48 73 -65 133 -62 43 1 60 9 115 51 35 27 70 55 77 62
73 71 130 86 181 46 30 -24 32 -29 30 -84 -2 -47 -8 -65 -30 -92 -38 -46 -92
-70 -158 -71 -30 -1 -56 -6 -58 -12 -2 -6 27 -24 64 -41 78 -36 84 -34 148 52
61 81 83 144 86 240 2 49 -37 115 -85 141 -71 40 -154 17 -251 -71 -106 -96
-167 -117 -213 -75 -44 41 -13 166 50 197 42 21 93 30 117 21 22 -8 54 4 40
15 -10 9 -117 67 -122 67 -3 0 -21 -17 -41 -37z"/>
<path d="M4599 2512 c0 -4 -2 -22 -4 -40 -5 -52 -50 -101 -121 -134 -35 -16
-64 -35 -65 -41 0 -7 -2 -24 -4 -39 -4 -28 -3 -28 55 -28 98 0 123 -21 114
-95 -2 -19 0 -35 4 -35 20 0 54 51 59 88 5 35 1 44 -31 79 -32 36 -34 42 -20
54 38 31 54 91 46 170 -2 17 -31 35 -33 21z"/>
<path d="M3992 2383 l-30 -37 37 -28 c48 -35 146 -84 188 -92 26 -6 34 -3 42
13 6 11 11 31 11 45 0 20 -8 27 -47 42 -53 20 -110 49 -133 68 -31 26 -38 25
-68 -11z"/>
<path d="M2969 2178 c-29 -35 -77 -86 -106 -114 -29 -28 -53 -55 -53 -58 0
-12 103 -4 131 10 28 14 175 157 190 185 7 14 1 18 -38 24 -25 4 -51 9 -57 11
-7 3 -37 -24 -67 -58z"/>
<path d="M3799 2236 c-2 -2 -22 -7 -44 -10 -22 -4 -43 -10 -47 -14 -7 -7 53
-75 140 -156 51 -48 54 -49 125 -54 l72 -4 -70 68 c-38 38 -90 93 -113 122
-41 49 -53 58 -63 48z"/>
<path d="M5228 2078 c-52 -69 -109 -133 -271 -301 -38 -41 -54 -64 -48 -70 7
-7 16 -5 28 5 25 23 54 25 80 7 23 -16 151 -132 255 -230 34 -32 65 -59 70
-59 17 0 20 -68 3 -93 -9 -15 -12 -28 -7 -31 10 -6 181 163 247 244 20 25 53
65 73 89 66 79 65 75 31 112 -16 19 -37 44 -45 56 -23 33 -44 20 -33 -20 15
-52 10 -99 -15 -152 -20 -43 -87 -123 -105 -126 -55 -8 -66 -1 -173 96 l-49
45 26 34 c15 19 45 51 68 71 39 35 45 37 89 31 51 -7 62 3 29 26 -10 7 -42 34
-70 61 -50 45 -80 54 -66 18 25 -61 13 -89 -71 -180 l-32 -35 -84 74 c-45 40
-84 79 -86 86 -5 19 117 143 157 160 20 8 52 14 71 13 64 -5 66 10 8 52 -29
21 -55 39 -58 39 -3 0 -13 -10 -22 -22z"/>
<path d="M1626 2012 c-8 -13 3 -42 16 -42 19 0 -1 -60 -30 -88 -60 -57 -281
-254 -304 -270 -30 -21 -50 -21 -85 0 -55 33 -46 2 19 -69 78 -85 239 -243
295 -289 l41 -35 54 38 c30 21 55 43 56 48 1 6 -26 10 -66 10 -83 1 -143 27
-201 90 -62 67 -58 87 36 179 43 42 80 76 84 76 3 0 31 -25 62 -56 59 -58 73
-87 63 -129 -14 -57 -2 -54 73 18 67 65 80 94 34 76 -47 -18 -84 -2 -146 59
l-58 58 86 83 85 82 28 -20 c33 -24 79 -74 112 -120 18 -26 24 -48 24 -92 1
-32 4 -60 7 -64 4 -3 25 17 48 46 l41 52 -77 71 c-74 69 -92 87 -226 230 -36
39 -67 64 -71 58z"/>
<path d="M4143 1873 c-39 -5 -42 -15 -10 -31 77 -40 184 -53 222 -28 34 22 25
32 -25 30 -22 -1 -43 3 -46 7 -3 5 -9 7 -14 4 -5 -3 -23 1 -39 10 -17 8 -36
14 -43 13 -7 0 -28 -3 -45 -5z"/>
<path d="M2602 1844 c-18 -8 -56 -16 -83 -18 -27 -2 -52 -6 -55 -9 -11 -10 41
-34 79 -36 62 -3 205 45 186 63 -14 13 -98 13 -127 0z"/>
<path d="M2958 1670 c-37 -27 -72 -59 -78 -70 -28 -51 -23 -112 9 -130 17 -9
19 -6 18 23 0 20 8 45 23 65 27 37 40 41 40 12 0 -84 113 -124 172 -61 25 28
23 42 -4 33 -13 -5 -29 -7 -35 -6 -7 1 -19 2 -27 3 -22 2 -36 53 -21 81 10 19
9 30 -4 61 -9 21 -18 39 -21 39 -3 0 -35 -23 -72 -50z"/>
<path d="M3789 1684 c-13 -27 -15 -41 -6 -63 22 -58 -14 -102 -68 -81 -27 10
-36 4 -28 -17 8 -21 79 -51 108 -46 31 7 65 44 69 77 4 40 13 42 41 10 25 -29
29 -41 25 -81 -1 -13 2 -23 5 -23 16 0 44 47 45 73 0 40 -23 78 -71 118 -37
30 -95 70 -102 69 -1 -1 -9 -16 -18 -36z"/>
<path d="M4756 1591 c-3 -4 -55 -39 -116 -76 -60 -38 -110 -74 -110 -82 0 -17
10 -16 34 2 31 23 79 -4 106 -60 6 -11 37 -60 69 -110 103 -154 141 -220 141
-242 0 -12 -12 -30 -27 -41 -21 -15 -25 -24 -17 -32 15 -15 266 141 255 159
-6 9 -14 8 -37 -3 -23 -13 -32 -13 -49 -3 -24 16 -262 367 -270 400 -4 16 2
31 24 53 17 17 28 34 24 38 -9 9 -21 8 -27 -3z"/>
<path d="M2165 1509 c-4 -5 0 -16 9 -22 9 -7 20 -26 25 -42 7 -27 1 -40 -53
-120 -115 -167 -180 -260 -193 -273 -17 -18 -71 -33 -78 -22 -6 10 -35 2 -35
-9 0 -4 19 -18 43 -31 166 -91 157 -87 157 -67 0 7 -9 18 -20 25 -29 18 -40
52 -26 82 10 24 189 295 207 314 5 5 6 -49 4 -125 -14 -367 -14 -390 1 -396 8
-3 41 23 81 64 38 38 97 93 133 123 36 30 74 64 86 75 75 70 95 87 99 83 6 -5
-115 -353 -132 -383 -8 -13 -22 -20 -45 -20 -65 0 -41 -21 67 -56 149 -49 165
-52 165 -37 0 7 -10 18 -22 23 -41 18 -43 52 -10 156 16 52 46 146 66 209 20
63 41 122 46 130 6 10 24 15 55 14 68 -1 51 16 -49 50 l-88 29 -26 -34 c-36
-45 -69 -77 -177 -167 -49 -42 -98 -84 -108 -94 -10 -10 -20 -18 -22 -18 -7 0
4 356 13 402 l9 48 -81 46 c-44 26 -84 48 -88 51 -4 2 -10 -2 -13 -8z"/>
<path d="M4120 1269 c-19 -5 -43 -11 -52 -13 -9 -3 -52 -15 -95 -27 -43 -12
-102 -27 -131 -33 -62 -13 -72 -30 -21 -34 25 -2 40 -10 48 -25 11 -20 46
-142 56 -192 2 -11 18 -72 34 -135 17 -63 29 -124 27 -135 -1 -10 -17 -26 -34
-35 -17 -8 -32 -21 -32 -27 0 -16 -3 -17 93 8 45 11 91 23 101 25 11 2 49 13
85 25 139 46 200 91 249 184 22 43 26 63 26 135 0 95 -19 145 -77 205 -67 68
-185 100 -277 74z m85 -60 c54 -26 90 -65 123 -139 32 -69 37 -206 10 -255
-37 -68 -85 -101 -161 -110 -58 -7 -79 18 -102 124 -6 26 -7 29 -45 166 -56
205 -56 206 0 221 69 19 125 16 175 -7z"/>
<path d="M3016 1171 c-4 -5 -2 -12 4 -16 5 -3 10 -4 10 0 0 3 14 -1 30 -10 36
-19 38 -28 26 -172 -4 -45 -9 -113 -11 -150 -14 -201 -22 -223 -82 -223 -31 0
-44 -12 -25 -24 9 -5 62 -12 157 -21 28 -2 129 -7 226 -10 l175 -6 16 68 c9
37 13 71 9 75 -4 4 -22 -8 -40 -28 -18 -19 -51 -44 -73 -55 -75 -38 -204 -35
-239 7 -12 14 -15 65 -9 164 5 83 3 81 87 78 87 -3 129 -23 146 -68 12 -32 25
-38 32 -17 2 6 6 51 8 100 3 69 1 87 -10 87 -7 0 -17 -10 -22 -23 -15 -38 -49
-49 -142 -45 l-84 3 1 65 c1 97 7 154 16 166 12 16 166 6 220 -15 14 -5 41
-28 58 -50 18 -22 37 -38 42 -35 9 6 2 109 -8 125 -2 4 -52 8 -111 9 -60 1
-124 3 -143 5 -19 2 -69 6 -110 9 -41 4 -92 9 -112 11 -20 3 -39 1 -42 -4z"/>
</g>
</svg>
