<?xml version="1.0" encoding="UTF-8"?>
<svg width="342px" height="340px" viewBox="0 0 342 340" version="1.1" xmlns="http://www.w3.org/2000/svg" xmlns:xlink="http://www.w3.org/1999/xlink">
    <title>Neals_Yard_Remedies</title>
    <g id="Page-1" stroke="none" stroke-width="1" fill="none" fill-rule="evenodd">
        <g id="Neals_Yard_Remedies" transform="translate(3.000000, 3.000000)">
            <path d="M12,167.511519 C12,81.6230832 81.829881,12 168,12 C254.170119,12 324,81.6000444 324,167.511519 C324,253.422994 254.170119,323 168,323 C81.829881,323 12,253.399956 12,167.511519 Z" id="Path" stroke="#FFFFFF" stroke-width="1.25"></path>
            <path d="M0,167 C0,74.7661712 75.2067695,0 168,0 C260.793231,0 336,74.7661712 336,167 C336,259.233829 260.793231,334 168,334 C75.2067695,334 0,259.210845 0,167 Z" id="Path" stroke="#FFFFFF" stroke-width="5"></path>
            <path d="M133.302028,245.591299 C133.583143,245.591299 134.210248,245.716076 133.929132,245.924037 C132.250407,247.071418 130.377333,247.929868 128.393312,248.461162 C122.987238,249.729725 120.803184,248.461162 120.327449,247.691706 C119.851714,246.92225 119.83009,246.735085 120.695062,246.81827 C123.524883,247.119383 126.378331,246.50469 128.804174,245.071396 C129.024213,244.976201 129.276112,244.976201 129.496151,245.071396 C129.712394,245.071396 130.75036,245.32095 131.658581,245.42493 C132.566801,245.528911 133.085785,245.653687 133.388525,245.653687" id="Path" fill="#FFFFFF" fill-rule="nonzero"></path>
            <path d="M202.712576,244.592216 C202.409512,244.592216 201.803384,244.717318 202.063153,244.925822 C203.749801,246.079103 205.632524,246.939939 207.626542,247.469568 C213.016751,248.720591 215.224789,247.469568 215.679385,246.677254 C216.133981,245.884939 216.177276,245.738987 215.333026,245.801538 C213.511175,246.008027 211.664492,245.830158 209.921169,245.280278 C208.972652,244.965143 208.058975,244.560047 207.193593,244.070956 C206.980686,243.976348 206.73543,243.976348 206.522523,244.070956 C205.807956,244.220903 205.085249,244.332279 204.35778,244.404563 C203.535178,244.508814 202.950697,244.654767 202.647633,244.654767" id="Path" fill="#FFFFFF" fill-rule="nonzero"></path>
            <path d="M203.244893,220.380615 C205.0731,221.203118 206.946724,221.913573 208.856,222.508274 C209.048,223.387712 209.048,224.300232 208.856,225.179669 C208.750764,225.82508 208.525205,226.443281 208.191828,227 C205.713093,226.598498 203.310066,225.800916 201.069157,224.635934 C198.939326,223.503545 196.908664,222.182598 195,220.687943 C195,220.687943 195.824489,219.86052 196.603174,218.962175 C197.381858,218.06383 198.297957,217 198.297957,217 C199.82973,218.291209 201.496723,219.401353 203.267795,220.309693" id="Path" fill="#FFFFFF" fill-rule="nonzero"></path>
            <path d="M223.663323,219.554187 C221.871894,220.746862 219.950286,221.711632 217.939419,222.427952 C217.611715,222.427952 217.305857,222.427952 217.349551,222.815682 C217.423974,223.367949 217.423974,223.928374 217.349551,224.480641 C217.349551,225.187679 217,226.214023 217,226.396485 C217,226.578946 217,226.692984 217.655409,226.647369 C218.693733,226.458369 219.747991,226.381937 220.801371,226.419292 C222.483587,226.419292 225.170764,226.419292 225.782478,228.700058 C226.079571,229.934686 225.963958,231.238209 225.454774,232.394899 C225.454774,232.851052 225.454774,233.215975 226.197571,232.851052 C227.548157,232.103503 228.520854,230.780061 228.8629,229.224634 C229.217428,227.781853 228.874882,226.249242 227.945328,225.119256 C227.329861,224.36471 226.589954,223.731306 225.760631,223.249028 C225.542162,223.249028 225.214457,222.998143 225.564009,222.678836 C226.675147,221.772308 227.559635,220.598516 228.14195,219.257687 C228.794145,217.896359 229.066674,216.371058 228.928441,214.855809 C228.892381,213.806168 228.422177,212.824407 227.63947,212.164505 C227.311766,211.936429 227.005908,211.913621 226.962214,212.301351 C226.957202,213.384649 226.83258,214.463733 226.590816,215.517231 C226.180605,216.547964 225.636622,217.514937 224.974141,218.390996 C224.573262,218.858539 224.11827,219.272249 223.619629,219.62261" id="Path" fill="#FFFFFF" fill-rule="nonzero"></path>
            <path d="M112.402062,219.803803 C114.163006,220.98236 116.059254,221.919814 118.045035,222.593534 C118.370591,222.593534 118.696148,222.593534 118.631036,222.982267 C118.55624,223.528238 118.55624,224.082695 118.631036,224.628666 C118.631036,225.360399 119,226.389398 119,226.549464 C119,226.709531 119,226.846731 118.348888,226.800997 C117.256016,226.561997 116.144227,226.431846 115.028215,226.412264 C113.378731,226.412264 110.817689,226.686664 110.275096,228.698929 C109.991898,229.937689 110.106386,231.24041 110.600652,232.403326 C110.600652,232.860659 110.600652,233.203659 109.862725,232.860659 C108.53334,232.10696 107.570688,230.793446 107.214868,229.247729 C106.89477,227.793823 107.231332,226.265685 108.126425,225.108865 C108.737858,224.352368 109.472914,223.717326 110.2968,223.2338 C110.535541,223.2338 110.861097,222.9594 110.513837,222.662134 C109.379065,221.760617 108.457905,220.594432 107.822573,219.255004 C107.131828,217.848131 106.866724,216.252082 107.062942,214.681674 C107.292835,213.754243 107.732157,212.899126 108.343463,212.189209 C108.603908,211.91481 109.037982,211.91481 109.103094,212.349276 C109.097313,213.428518 109.221287,214.504186 109.472057,215.550607 C109.877047,216.592391 110.417583,217.569774 111.078134,218.454671 C111.47887,218.955876 111.938313,219.401519 112.44547,219.780936" id="Path" fill="#FFFFFF" fill-rule="nonzero"></path>
            <path d="M133.692826,221.484022 C135.34767,220.596234 136.89988,219.502759 138.317611,218.226033 C138.497214,218.081233 138.631916,217.888167 138.766619,218.081233 C139.160851,218.692787 139.604063,219.266123 140.091193,219.794694 C140.674904,220.349759 141.707623,221.218556 141.864775,221.363356 C142.021928,221.508155 142.066829,221.556422 141.864775,221.677088 C140.326958,223.01394 138.681599,224.201144 136.948136,225.224676 C134.509172,226.558877 131.898615,227.49429 129.202744,228 C128.686385,228 128.753736,228 128.708835,227.831067 C128.480085,227.385075 128.313664,226.90531 128.214926,226.407205 C128.037169,225.617887 127.96908,224.804632 128.012873,223.99388 C128.125125,223.776681 128.147575,223.776681 128.529232,223.680148 C130.300208,223.169811 132.010321,222.440969 133.625475,221.508155" id="Path" fill="#FFFFFF" fill-rule="nonzero"></path>
            <path d="M148.309203,252.169392 C148.439047,252.169392 148.828581,251.78826 148.871862,252.169392 C148.903643,252.706332 149.035945,253.231739 149.261396,253.716339 C149.587287,254.352921 149.963689,254.960339 150.386716,255.532319 C150.538201,255.666836 150.624764,255.778934 150.494919,255.98071 C149.663676,256.587093 149.196486,257.597552 149.261396,258.648632 C149.477804,260.217998 150.451638,261.428652 151.728443,261.406233 C152.609795,261.345873 153.474095,261.125816 154.282052,260.756067 C154.844712,260.59913 155.08276,260.756067 154.974557,261.271715 C154.56043,262.281003 153.78471,263.084638 152.810481,263.513667 C151.175916,264.446979 149.182767,264.395571 147.595058,263.37915 C146.48989,262.725341 145.762705,261.553458 145.647389,260.240418 C145.570099,259.72036 145.570099,259.19111 145.647389,258.671052 C145.647389,258.424437 145.842156,258.065725 145.322778,258.379598 C144.383996,258.917259 143.588436,259.687528 143.007217,260.621549 C142.298509,261.611739 142.059882,262.880774 142.357994,264.074155 C142.790809,265.441745 142.011742,264.970936 141.665489,264.679482 C140.516409,263.96818 139.873652,262.627643 140.020792,261.249296 C140.025591,259.379354 140.864332,257.616679 142.293071,256.473939 C143.492434,255.414373 144.765466,254.447721 146.101845,253.581821 C146.707786,253.111012 148.265921,252.169392 148.265921,252.079714" id="Path" fill="#FFFFFF" fill-rule="nonzero"></path>
            <path d="M187.569737,252.16957 C187.440263,252.16957 187.05184,251.788038 187.030261,252.16957 C186.977615,252.703368 186.84662,253.225622 186.641838,253.718143 C186.304072,254.345375 185.921782,254.945523 185.498149,255.51359 C185.368675,255.648248 185.26078,255.782907 185.498149,255.940009 C186.322717,256.563053 186.792576,257.574099 186.749733,258.633179 C186.512364,260.226638 185.541307,261.416122 184.268144,261.393679 C183.392552,261.326951 182.532888,261.114795 181.721817,260.765272 C181.18234,260.585728 180.901813,260.765272 181.031287,261.25902 C181.463787,262.255479 182.231095,263.053511 183.189191,263.503329 C184.822369,264.423561 186.802616,264.372286 188.389741,263.36867 C189.487355,262.698548 190.20956,261.521789 190.331855,260.204195 C190.408925,259.68359 190.408925,259.153784 190.331855,258.633179 C190.331855,258.386305 190.137643,258.027216 190.65554,258.363862 C191.607368,258.879282 192.405752,259.655312 192.964498,260.608171 C193.677102,261.596678 193.915599,262.869984 193.611869,264.064406 C193.201867,265.433434 193.978713,264.984573 194.323978,264.670369 C195.461922,263.948777 196.106352,262.617014 195.985564,261.236577 C195.969318,259.356098 195.12664,257.586722 193.698185,256.433756 C192.500091,255.385893 191.238735,254.418863 189.921853,253.538598 C189.252902,253.11218 187.763949,252.192013 187.763949,252.079798" id="Path" fill="#FFFFFF" fill-rule="nonzero"></path>
            <path d="M147.992149,226.199846 C148.156526,226.065499 148.320903,225.90876 148.579209,226.065499 C149.198129,226.362944 149.864813,226.55971 150.551733,226.647669 C151.544472,226.853746 152.547731,227.010694 153.557484,227.117884 C153.886238,227.117884 154.121062,227.117884 153.933203,227.498534 C153.745343,227.879185 150.176014,231.797642 149.236717,232.670898 C148.29742,233.544154 144.681126,237.149135 144.32889,237.261091 C143.880443,237.541974 143.361804,237.704244 142.826014,237.731306 C141.9102,237.888044 138.458283,238 137.918187,238 C137.378091,238 136.626653,238 137.213714,237.574567 C137.800775,237.149135 141.9102,233.096331 143.013874,231.999163 C144.117548,230.901994 147.710359,226.356584 147.945184,226.199846" id="Path" fill="#FFFFFF" fill-rule="nonzero"></path>
            <path d="M188.004012,226.208825 C187.839831,226.029832 187.652196,225.917961 187.417652,226.07458 C186.806599,226.369065 186.148902,226.565601 185.470933,226.656308 C184.485847,226.790553 182.797128,227.170914 182.445311,227.126165 C182.093495,227.081417 181.882405,227.126165 182.07004,227.506526 C182.257676,227.886886 185.82275,231.802362 186.760927,232.674953 C187.699105,233.547545 191.311088,237.149782 191.662904,237.261653 C192.107688,237.548461 192.627544,237.711182 193.163988,237.73151 C194.078711,237.865755 197.526513,238 198.08942,238 C198.652326,238 199.355959,238 198.793053,237.574891 C198.230146,237.149782 194.102166,233.100062 192.999807,232.026103 C191.897449,230.952144 188.30892,226.365444 188.050921,226.208825" id="Path" fill="#FFFFFF" fill-rule="nonzero"></path>
            <path d="M167.138876,67 C185.304589,67 190.883648,73.5480736 191.300908,74.0719195 L191.320332,74.0967021 C191.324612,74.1022726 191.326718,74.1051146 191.326718,74.1051146 C195.760843,73.8563361 200.181384,74.7898703 204.133399,76.8096421 C207.212665,78.7058309 209.6915,81.4310991 211.283987,84.6711076 C211.283987,84.6711076 211.33033,84.6692597 211.417343,84.6687448 L211.540917,84.6689701 C212.822249,84.6804209 218.582706,84.9957411 221.676482,89.6217681 C225.046488,94.6608332 223.477883,98.3146291 223.361541,98.5691871 L223.354916,98.5833804 L223.354916,98.5833804 L223.37825,98.5912964 C223.870922,98.7610977 232,101.692128 232,110.2266 C232,117.308795 225.723117,120.059162 224.11366,120.723834 C222.504203,121.388506 220.067025,122.053178 220.067025,123.015807 C220.067025,125.307779 224.665474,123.451281 224.665474,126.018291 C224.665474,127.989387 220.296947,132.206616 212.870452,133.513041 C208.443169,134.30505 203.888772,134.006053 199.603926,132.642091 C199.603926,132.642091 196.06312,135.18618 194.085787,136.355086 C193.201191,136.878018 191.014332,137.91012 188.6801,138.993766 L187.852015,139.377625 C185.222277,140.595235 182.578168,141.809981 181.532021,142.382974 C178.743939,143.961037 176.743609,146.628039 176.013882,149.740205 C175.39746,153.527739 175.135754,157.364215 175.232146,161.200068 C184.653896,162.362414 193.641784,165.826559 201.397321,171.284747 L175.324115,171.536863 L175.393092,171.559783 L175.393476,171.615847 C175.401418,172.379978 175.573492,180.78268 179.301773,186.182567 C184.818591,194.877056 194.011262,200.589587 204.271352,201.699221 C216.965423,202.728004 220.079598,201.115387 222.164108,200.144648 L222.320584,200.072208 C222.397971,200.036659 222.474185,200.002155 222.549695,199.968876 L222.774579,199.872896 C222.799435,199.86268 222.824265,199.85262 222.849086,199.842723 C224.159644,199.31557 223.814761,200.369877 223.079009,201.103308 C220.381112,203.667434 216.965365,205.353935 213.284312,205.93937 C208.715113,206.785825 204.020559,206.69223 199.488965,205.664333 C199.282035,206.466524 203.627569,211.73806 212.686514,211.829739 C217.888323,211.730468 222.819644,209.50055 226.320915,205.664333 C226.895722,204.885063 227.424543,205.11426 227.263597,205.664333 C225.977106,209.638012 223.155693,212.937149 219.423242,214.832223 C217.375711,215.877615 215.140819,216.508578 212.84746,216.688721 C214.44672,218.928755 215.335688,221.595233 215.399599,224.343909 C215.442581,229.437052 211.444137,233.65556 206.340654,233.901434 C203.6407,234.086351 201.035084,232.874232 199.44298,230.692672 L199.434531,230.672193 L199.434531,230.672193 L199.413708,230.616698 C199.331213,230.383256 199.155577,229.714764 200.017787,230.09676 C201.535275,230.761432 208.432948,232.847127 210.134375,226.200406 C211.513909,220.814271 206.524592,217.720108 204.754189,216.551202 C204.227853,216.20369 203.488138,215.746785 202.708438,215.276248 L202.280223,215.018815 L202.280223,215.018815 L201.850332,214.762131 C200.278628,213.826551 198.799198,212.975725 198.799198,212.975725 C198.799198,212.975725 198.132422,213.159083 198.132422,213.159083 C196.799746,215.969072 194.879,218.462073 192.499322,220.470475 C187.900873,224.298069 181.141153,225.856611 178.106177,225.05442 C177.531371,224.871062 176.726642,224.298069 177.968223,224.000113 C182.358463,222.705832 186.356612,220.342865 189.602299,217.124196 C193.373028,213.113244 194.200748,209.377329 192.2694,206.443604 C190.441107,204.176716 188.122422,202.351124 185.486687,201.103308 C183.187463,199.613526 179.784611,196.931918 179.784611,196.931918 C180.982896,199.496048 182.366055,201.970221 183.923215,204.334989 C184.526071,205.162391 185.666781,206.486235 186.849523,207.809747 L187.223839,208.227108 C189.034198,210.238698 190.820888,212.127696 190.820888,212.127696 C190.820888,212.127696 190.108129,213.38828 189.418361,214.419668 C189.027493,214.923902 188.498672,215.657333 188.291741,215.840691 C188.086366,215.998804 187.85209,216.115572 187.601974,216.184487 C184.630711,213.454655 181.95649,210.420114 179.623665,207.131196 C177.166359,203.509618 175.042433,199.674063 173.277805,195.671333 C172.98852,199.224393 173.646892,202.790528 175.186161,206.008129 C177.295681,210.833297 179.810799,215.471972 182.704626,219.874562 C182.704626,219.874562 181.233122,220.722592 180.060518,221.318505 C179.161898,221.714559 178.220755,222.006777 177.255464,222.189455 C176.339238,221.193246 175.501374,220.128146 174.749309,219.003613 C174.431598,218.478543 173.995315,217.680709 173.568706,216.877916 L173.356802,216.477346 C172.867009,215.547504 172.419477,214.671664 172.217852,214.27509 L172.147091,214.135711 C172.138005,214.117785 172.130321,214.102615 172.124115,214.090354 L172.105201,214.052952 L172.105201,214.052952 C172.105201,214.052952 170.265821,225.031501 177.899246,232.388732 C188.866548,242.977645 201.581259,240.135599 209.37563,237.362312 C213.641449,236.066181 217.46224,233.614305 220.411908,230.280117 C220.917738,229.821723 221.400575,229.27165 221.699474,230.142599 C221.707846,231.85532 221.038702,233.502316 219.837102,234.726544 C218.794137,235.891112 217.603922,236.915782 216.296296,237.774867 C216.296296,237.774867 215.997397,238.37078 216.595196,238.37078 C218.842077,238.947892 220.778107,240.368645 221.998373,242.335893 C223.041097,244.25019 222.952935,246.579102 221.768451,248.40962 C221.285614,249.120131 221.101676,248.226262 221.101676,248.226262 C221.031875,246.622144 220.377937,245.098384 219.262296,243.940273 C216.382263,241.419638 212.403731,240.553703 208.731848,241.648301 C202.893271,243.09659 196.906029,243.865708 190.889865,243.940273 L190.588651,243.940549 C189.685718,243.943304 189.767426,243.973611 190.039152,244.306989 C193.543293,247.155663 197.343345,249.622132 201.374329,251.66422 C205.78884,253.543638 208.800824,254.712544 211.146033,254.277069 C212.705439,254.02294 214.202978,253.478685 215.560545,252.672688 C215.951413,252.374732 216.319289,252.168454 216.388265,252.901886 C215.951888,254.43882 214.894133,255.725708 213.46825,256.454443 C211.288277,257.360333 208.887334,257.59967 206.570577,257.142035 C205.99577,256.912837 205.834825,256.912837 205.926794,257.371232 C206.085214,258.666908 205.615689,259.960412 204.66222,260.85503 C203.525156,262.085008 201.69099,262.378686 200.224717,261.565541 C198.748423,260.884635 198.623562,260.456322 198.61572,260.421812 C198.61526,260.419555 198.61526,259.915321 198.983136,259.915321 C199.351011,259.915321 200.822515,259.915321 201.28236,259.617365 C201.898418,259.176115 202.158511,258.389038 201.926143,257.669188 C201.592259,256.737242 200.871712,255.993911 199.94881,255.629333 C199.419988,255.377216 198.212895,254.695354 196.942574,253.970518 L196.060577,253.466595 C195.086154,252.909616 194.158301,252.380021 193.556966,252.053856 C192.911183,251.703583 191.480883,250.798058 190.024319,249.855727 L189.564362,249.55753 C188.03416,248.563493 186.563295,247.589141 186.036157,247.239162 L185.865631,247.125857 C185.843219,247.110951 185.831571,247.103195 185.831571,247.103195 C185.831571,247.103195 185.026843,246.346844 185.164796,247.103195 C185.391607,249.122187 185.243521,251.165554 184.727943,253.131083 C183.945944,255.27401 182.442698,257.080317 180.474378,258.242181 C178.725025,259.012805 176.770334,259.189944 174.910255,258.746415 C173.875603,258.242181 173.576704,257.577509 174.910255,257.50875 C177.536624,257.310499 179.82047,255.638589 180.796269,253.199842 C181.706653,250.159362 181.444235,246.889483 180.060518,244.031952 C178.155232,241.170535 176.033793,238.458141 173.714658,235.91837 C173.429237,235.551654 173.096574,235.108194 172.764454,234.658239 L172.516212,234.320652 C171.735165,233.254722 171.024565,232.251214 171.024565,232.251214 C170.841237,234.06492 170.841237,235.892402 171.024565,237.706108 C171.275286,239.571936 171.92616,241.362056 172.932921,242.954725 C174.831842,244.96399 176.909655,246.797438 179.140828,248.432539 C179.57768,248.638817 179.462719,249.120131 179.393742,249.395168 C179.324766,249.670204 179.255789,252.076775 178.772952,252.53517 C178.290115,252.993564 178.474053,252.993564 178.0372,252.718528 C177.78517,252.559853 176.744906,251.905318 175.680214,251.212641 L175.254844,250.93462 C174.620267,250.517793 174.013557,250.109205 173.599697,249.807723 C172.4041,248.936773 170.587712,247.332392 170.587712,247.332392 C170.587712,247.332392 169.989914,246.988597 169.989914,247.492831 L169.989993,247.749035 C169.990019,247.790322 169.990054,247.835609 169.990101,247.884626 L169.990917,248.419093 C169.994787,250.280392 170.013582,254.264261 170.104875,255.0105 C170.219836,255.950209 171.553387,262.115615 174.197495,264.384667 C176.525029,266.666896 179.757979,267.786024 183.003525,267.432991 C185.302749,267.066275 184.58999,267.983064 184.153137,268.418539 C182.976558,269.324809 181.524095,269.802044 180.037525,269.770803 C177.179791,269.645916 174.428397,268.65438 172.151185,266.928757 C170.360736,265.703446 168.938137,264.015971 168.035573,262.046856 C167.874627,261.68014 167.506752,261.244665 167.207852,261.909337 C165.975239,264.046538 164.34418,265.929177 162.402473,267.455911 C160.063868,268.951324 157.381076,269.82699 154.608102,270 C153.129167,269.887464 151.707738,269.380846 150.49249,268.533138 C150.055637,268.258101 149.894691,267.52467 150.860366,267.662188 C152.779412,267.911177 154.730447,267.682831 156.53945,266.997516 C159.921193,265.745901 162.567667,263.057365 163.759015,259.663204 C164.672076,255.797701 165.066387,251.828487 164.93162,247.859546 C164.93162,247.355312 164.793667,246.782319 164.333822,247.355312 C163.288681,248.497896 162.098351,249.499551 160.793016,250.334876 C160.372258,250.596161 159.827342,250.944083 159.27063,251.303143 L158.898975,251.543338 C157.847989,252.223873 156.844007,252.88429 156.644288,253.015785 L156.608427,253.039404 L156.608427,253.039404 L156.079606,253.039404 C155.738199,252.25179 155.483787,251.429479 155.320861,250.586993 L155.320861,248.982613 C155.320861,248.982613 155.182908,248.982613 155.91866,248.40962 C157.677404,247.156983 159.309863,245.736925 160.793016,244.16947 C162.205785,242.631161 163.18887,240.750222 163.644054,238.714576 C163.873034,236.635126 163.873034,234.536941 163.644054,232.457491 C163.644054,232.457491 161.804675,234.932821 161.206876,235.803771 C160.609078,236.674721 157.068272,240.181438 156.12559,241.71706 C155.182908,243.252681 152.722738,247.034436 153.527466,250.88495 C154.332195,254.735463 155.826691,257.348312 159.574427,257.577509 C161.367822,257.577509 160.884985,258.631817 159.942303,258.838094 C157.310526,259.662813 154.437052,258.955551 152.492815,257.004516 C150.420815,254.409783 149.373879,251.148428 149.549808,247.836626 C149.549808,246.942757 149.411854,246.873998 148.952009,247.240714 C148.492165,247.607429 142.767095,251.824658 140.260941,253.154002 C137.754786,254.483347 134.650833,256.064807 134.145003,256.431523 C133.195395,256.978647 132.648775,258.023775 132.742476,259.113131 C133.074023,260.154906 134.163158,260.758072 135.225639,260.488314 C135.984383,260.350796 136.283282,260.282037 136.214305,260.786271 C135.505252,261.926506 134.249103,262.61347 132.903422,262.596929 C131.506638,262.676294 130.189632,261.943955 129.523562,260.717512 C129.02859,259.935288 128.765559,259.029502 128.764818,258.104663 C128.925764,257.715028 128.925764,257.439991 128.465919,257.646268 C126.710079,258.065093 124.886621,258.119703 123.108726,257.806707 C120.949684,257.485438 119.16413,255.963604 118.510276,253.887434 C118.280354,252.626849 119.177052,253.314441 119.315005,253.3832 C120.685314,254.277183 122.276545,254.77684 123.913454,254.827142 C128.699767,254.4093 133.298848,252.775897 137.271949,250.082759 C139.984294,248.40615 142.566669,246.529108 144.997343,244.467427 C144.997343,244.467427 145.112304,244.100711 144.629467,244.19239 C141.337027,244.297072 138.041265,244.17454 134.765794,243.825675 C131.087035,243.321441 125.568896,241.71706 121.775175,242.083776 C117.981455,242.450491 114.647579,244.146551 113.750882,247.607429 C113.566944,248.36378 113.750882,249.899402 113.42899,249.578525 C112.065393,248.479978 111.517657,246.659953 112.049455,244.994581 C112.519389,242.885162 113.787759,241.037868 115.590261,239.837643 C116.440002,239.382626 117.333542,239.014051 118.257362,238.737496 L118.285516,238.72921 C118.389684,238.696334 118.730345,238.567235 118.395315,238.37078 C117.03305,237.44639 115.755799,236.403268 114.578602,235.253698 C113.378977,234.141388 112.703222,232.577916 112.716231,230.944789 C112.946153,229.867562 113.153083,230.165519 113.520959,230.371796 C115.036743,231.779637 116.641854,233.088767 118.326338,234.291069 C122.487276,236.916004 127.103641,238.742734 131.937748,239.677204 C136.86332,240.567083 141.927699,240.32407 146.744754,238.966693 C152.054539,237.109663 156.576792,233.514582 159.574427,228.767416 C162.020676,224.538284 163.028877,219.633778 162.448458,214.786384 C162.448458,214.419668 161.96562,214.786384 161.160892,216.459524 C160.839,217.055436 159.459466,219.347409 159.206551,219.759964 L157.643078,222.051936 C157.643078,222.051936 157.321187,222.487411 157.022288,222.395732 C156.109946,222.12891 155.212051,221.815256 154.332195,221.456023 L152.216908,220.539235 C152.096324,220.489855 152.002432,220.391777 151.958586,220.269397 C151.914741,220.147017 151.925063,220.011837 151.986986,219.897482 C154.07609,216.79753 155.920996,213.540814 157.505125,210.156599 C159.611736,206.023782 160.862806,201.510752 161.183884,196.886079 L161.183345,196.675907 C161.179573,196.237522 161.149396,196.169837 160.907977,196.611042 C159.522059,199.602695 157.947782,202.504008 156.194567,205.297618 C153.315328,209.29998 150.198126,213.12679 146.859715,216.75748 C146.283618,216.312922 145.759201,215.805535 145.296242,215.244778 C144.70226,214.547301 144.200034,213.777084 143.801746,212.952806 C143.801746,212.677769 143.341902,212.700689 144.100646,212.104776 C146.41834,209.950797 148.513456,207.570511 150.354536,204.999661 C151.875625,202.923192 153.177749,200.695827 154.240226,198.352941 C154.401172,197.734109 154.240226,197.802868 153.711404,198.100824 C151.200542,200.227 148.4903,202.10744 145.618134,203.716157 C143.122458,205.15898 141.491362,207.72627 141.249607,210.592074 C141.249607,214.717624 145.365219,218.38478 147.066645,219.645365 C149.420746,221.30651 151.968553,222.676448 154.654086,223.725076 C156.953311,224.458507 157.918985,224.756464 156.585435,225.329457 C154.149813,225.792081 151.636935,225.642414 149.273901,224.893982 C145.455377,223.605845 142.012901,221.402054 139.249282,218.476459 C137.984815,217.074814 137.008378,215.439575 136.375251,213.663317 C136.191313,213.4112 135.823437,213.525799 135.455561,213.823755 C132.597783,215.348279 129.874931,217.111784 127.316306,219.095292 C125.46958,220.703959 124.343883,222.981258 124.189361,225.421136 C124.419284,227.713108 125.936772,231.563622 129.91443,231.632381 C131.453229,231.818339 133.005634,231.417133 134.259965,230.509315 C134.880755,230.257198 135.409577,230.509315 135.248631,231.013549 C134.150746,232.815668 132.32169,234.053496 130.236322,234.405668 C126.644456,235.12225 122.968476,233.645691 120.878478,230.646833 C118.847589,227.443535 118.621503,223.421497 120.280679,220.012081 C121.294824,218.213192 121.554406,217.783661 121.611621,217.703897 L121.612,217.702 L121.611888,217.692626 C121.600179,217.606146 121.529925,217.341933 121.1084,217.284634 C118.893089,217.162904 116.739912,216.510339 114.831517,215.382296 C111.595321,213.55702 108.977881,210.81219 107.313053,207.497911 C106.646278,205.412216 107.542975,205.549735 108.048805,206.351925 C111.497018,210.212804 116.385171,212.491719 121.568245,212.654849 C126.597636,212.636345 131.400068,210.56572 134.857763,206.924918 C135.317608,206.283166 135.386585,206.191487 134.42091,206.351925 C131.90803,206.834432 129.365512,207.148372 126.810477,207.291634 C121.704507,207.407408 116.689378,205.933253 112.463316,203.074404 C111.694884,202.44829 111.068032,201.667196 110.623936,200.782432 C110.485983,200.11776 110.623936,200.071921 111.290711,200.415716 C111.493125,200.520083 111.89895,200.755405 112.588589,201.037685 L112.843907,201.139126 C114.492653,201.775018 117.530643,202.586542 122.786834,202.707689 C131.21138,203.005704 139.490445,200.461987 146.284909,195.487976 C150.880224,192.284843 154.461933,187.839721 156.608427,182.67585 C157.891952,179.418548 158.589164,175.962931 158.669836,172.467685 L158.677729,171.8119 L132.535546,171.8119 C140.299363,166.042463 149.435183,162.385444 159.045605,161.200068 C159.028574,159.305334 158.882621,157.413935 158.608753,155.538896 C157.873001,150.015242 158.447807,147.035678 154.424164,143.895676 C151.067296,141.259907 144.330568,138.945015 142.491188,137.913628 C140.651809,136.88224 134.21398,132.825449 134.21398,132.825449 C131.543206,133.951321 128.647213,134.445538 125.752834,134.269391 C120.648555,134.063114 112.348355,131.977419 110.04913,128.745738 C108.602012,126.592673 109.22445,125.976766 109.915134,125.32102 L110.04913,125.193181 L110.04913,125.193181 C110.784882,124.482669 112.049455,125.559896 112.992138,124.757706 C113.371437,124.541325 113.605458,124.139039 113.605458,123.703398 C113.605458,123.267757 113.371437,122.865472 112.992138,122.649091 C112.348355,122.121937 102.16279,120.105002 102.001844,110.982951 C101.91129,105.711206 105.162978,100.954657 110.118107,99.110534 C109.642036,95.7059785 110.462317,92.2471341 112.417331,89.4154906 C114.89495,86.4489692 118.619161,84.8046357 122.487935,84.969064 C123.718104,81.6944478 126.105551,78.9803644 129.201671,77.3367958 C133.223032,75.1182967 137.785701,74.0625882 142.376227,74.2884724 C142.376227,74.2884724 148.216258,67 167.138876,67 Z M194.108779,128.356103 C194.108779,128.356103 188.268749,128.814497 187.05016,129.089534 C186.628341,129.184739 185.983368,129.28269 185.307877,129.392894 L184.855144,129.468283 C183.722577,129.661815 182.624153,129.89525 182.451711,130.2126 C181.742933,131.161263 180.975009,132.064555 180.152487,132.917128 C179.830595,133.238004 176.335774,136.446765 176.335774,136.446765 C176.335774,136.446765 176.105851,136.607203 176.335774,136.607203 C179.368846,136.060124 182.358041,135.294117 185.279757,134.315231 C188.367551,132.775477 191.307493,130.957235 194.062795,128.883256 L194.177756,128.379022 L194.108779,128.356103 Z M140.008026,128.631139 C140.008026,128.631139 139.824088,128.768658 140.008026,129.066614 C142.630109,131.132537 145.485137,132.886302 148.515157,134.292311 C151.536984,135.508902 154.72023,136.280972 157.96497,136.584284 C157.96497,136.584284 157.027001,135.80382 156.024267,134.94733 L155.688821,134.659984 C155.073832,134.131563 154.47089,133.60398 154.07928,133.238004 C153.763958,132.943322 153.394205,132.558832 153.026865,132.159908 L152.752701,131.859187 C151.936896,130.955971 151.205249,130.075082 151.205249,130.075082 L151.205249,130.075082 L151.182257,130.143841 L151.182257,130.143841 L151.134679,130.135685 C150.869599,130.09027 149.535649,129.862041 148.114069,129.624397 L147.358673,129.498659 C146.104011,129.290805 144.915938,129.099445 144.468522,129.043694 L144.468522,129.043694 Z M150.170598,117.950548 C151.433841,120.519862 152.870316,123.000878 154.470148,125.376538 C156.216198,127.59219 158.197373,129.613223 160.379155,131.404426 C160.273519,129.577685 160.027547,127.761706 159.643404,125.972451 L158.1719,120.26544 C158.049721,120.044486 157.876283,119.855878 157.66607,119.715366 C157.516621,119.646607 156.752129,119.39449 155.950274,119.139508 L155.512666,119.001228 C154.861112,118.796636 154.254857,118.612094 154.010303,118.54646 C153.412505,118.386022 150.170598,117.950548 150.170598,117.950548 Z M183.325416,117.72135 C183.164471,117.698431 177.11751,119.234052 176.565696,119.44033 C176.013882,119.646607 175.829944,120.173761 175.600022,120.609236 C175.094535,122.243021 174.680042,123.903415 174.358441,125.582816 C174.036549,127.301795 173.507728,130.923112 173.507728,131.106469 C173.507728,131.289827 173.760642,131.289827 173.760642,131.289827 C176.1933,129.331253 178.310207,127.012318 180.037525,124.41391 C183.120785,120.040826 183.540854,118.26684 183.594035,117.955773 L183.596,117.942 L183.574778,117.909118 C183.540458,117.859938 183.475034,117.779752 183.391377,117.741263 Z M170.817635,111.808061 L162.908302,112.037259 C162.908302,112.037259 166.541077,126.476685 166.908953,126.430955 C167.276829,126.385006 171.27748,112.679011 171.323464,112.220616 C171.369449,111.762222 170.817635,111.808061 170.817635,111.808061 Z M139.240156,116.621867 L139.22629,116.621204 L139.22629,116.667043 L141.732444,121.250988 C142.556077,122.495739 143.454412,123.689741 144.422537,124.826465 L144.422537,124.826465 L149.319885,125.491137 C149.319885,125.491137 148.677559,124.541726 148.028833,123.527057 L147.800641,123.167669 C147.385599,122.509103 146.999201,121.866765 146.813731,121.480185 C146.638636,121.115233 146.389156,120.566278 146.133955,119.997783 L145.963727,119.617695 C145.539804,118.669264 145.142371,117.768071 145.089312,117.675511 C144.997343,117.515073 145.06632,117.262956 144.560491,117.056678 C144.054661,116.850401 139.22629,116.621204 139.22629,116.621204 Z M194.435249,116.346337 L194.430671,116.346167 L194.378753,116.350417 C194.093366,116.373594 192.707463,116.483685 192.131446,116.483685 L192.131446,116.483685 L189.09647,116.827481 L189.280408,116.827481 C189.280408,116.827481 187.946858,120.425878 187.234098,121.548944 C187.030452,121.86982 186.755484,122.304827 186.466573,122.762554 L186.248172,123.10868 C185.590504,124.151269 184.934874,125.193181 184.934874,125.193181 L184.934874,125.193181 L189.533323,124.574348 C189.717261,124.574348 189.924191,124.322231 190.039152,124.138873 C190.154113,123.955515 191.855539,121.617704 192.338377,120.815513 C192.563701,120.441158 192.929226,119.782292 193.304099,119.085824 L193.624655,118.485402 C193.941396,117.887289 194.237536,117.313379 194.430671,116.91916 C194.798547,116.346167 194.430671,116.346167 194.430671,116.346167 Z" id="Combined-Shape" fill="#FFFFFF"></path>
            <path d="M27.2122097,137.470111 C27.0543887,138.100105 26.062371,142.83673 26.0172793,142.953396 C25.9721876,143.070061 26.0172793,143.256726 26.1300086,143.280059 C26.2427379,143.303393 26.8965677,143.490058 27.009297,143.490058 C27.1495229,143.485265 27.2774101,143.405853 27.3474849,143.280059 C27.5107034,142.437026 27.8492053,141.64084 28.3395026,140.946747 C29.0198582,140.182889 29.7754914,139.494712 30.5940883,138.893431 L31.2028264,138.496768 C31.2991722,138.472971 31.3995768,138.472971 31.4959225,138.496768 L49.081691,142.953396 C50.248467,143.148982 51.3854421,143.501985 52.4635695,144.003386 C53.3492301,144.480155 54.0438636,145.265149 54.4250591,146.220033 C54.6206492,147.236714 54.6206492,148.283326 54.4250591,149.300006 C54.4250591,149.556671 54.4250591,149.790002 54.7181552,149.860001 L55.4621685,150 C55.5748978,150 55.6199895,150 55.6650812,149.860001 C55.7101729,149.720002 56.3189111,145.986702 56.6796448,144.540048 C57.0403785,143.093394 58.370584,138.030106 58.3931299,137.866774 C58.4156758,137.703442 58.3931299,137.680109 58.3931299,137.610109 C58.3931299,137.54011 57.5363873,137.353445 57.423658,137.283446 C57.3506088,137.225079 57.2487029,137.225079 57.1756536,137.283446 C56.9674226,138.079922 56.703697,138.859735 56.3865486,139.616758 C55.9004408,140.530609 55.093095,141.21575 54.1319629,141.530075 C53.1252205,141.847564 52.0499229,141.847564 51.0431805,141.530075 C49.9835252,141.27341 34.4494298,137.330112 34.1337878,137.190113 C33.8181458,137.050114 33.8181458,137.003448 34.0210585,136.886783 C34.2239712,136.770117 61.2789996,126.083545 61.7073709,125.990212 C62.1357421,125.89688 62.1357421,125.990212 62.1808339,125.710215 C62.2259256,125.430217 62.9023013,123.5869 62.9699389,123.376902 C63.0375764,123.166904 62.9699389,123.190237 62.9699389,123.143571 C62.9699389,123.096904 59.9037023,122.303578 59.001868,122.000247 C58.1000338,121.696917 42.1601129,116.213632 40.9651825,115.816969 C39.8643548,115.538414 38.8241191,115.04763 37.8989459,114.370315 C37.3099097,113.782483 36.9020093,113.027495 36.7265614,112.200334 C36.8126113,111.410729 36.9634618,110.630139 37.1774785,109.867021 C37.3127536,109.610357 37.2902078,109.493691 37.1774785,109.470358 C37.0647492,109.447025 36.4785569,109.097028 36.3432818,109.027029 C36.2080066,108.957029 36.0276398,109.027029 35.9600022,109.190361 C35.8923646,109.353692 34.2690629,113.856986 34.0886961,114.230316 C33.9083292,114.603646 32.1722982,119.713601 32.1272065,119.830267 C32.0821148,119.946932 32.1272065,120.040265 32.1272065,120.110264 C32.4111358,120.276768 32.7047991,120.424831 33.006495,120.553594 C33.2094077,120.553594 33.2770452,120.553594 33.4123204,120.180263 C33.7209861,119.296236 34.2224722,118.497779 34.8778011,117.846951 C35.4654772,117.205071 36.2780821,116.835039 37.1323868,116.820293 C38.0534558,116.950548 38.9649057,117.14544 39.8604355,117.403621 C40.3789902,117.54362 53.9290502,122.070247 54.3123298,122.326911 C54.6956094,122.583576 54.4701508,122.560242 54.3123298,122.606909 C54.1545088,122.653575 28.7904197,132.756819 28.6325987,132.803485 C28.4747777,132.850152 28.3395026,132.803485 28.2944109,132.943484 C28.2493191,133.083483 27.4376683,136.770117 27.2798473,137.423444" id="Path" fill="#FFFFFF" fill-rule="nonzero"></path>
            <path d="M48.7929414,95.508525 C50.2059066,96.2961207 66.0220009,106.905499 67.252648,107.947905 C68.3044498,108.626396 68.7950879,109.924918 68.4605054,111.144618 C68.1559457,111.91595 67.7741053,112.653379 67.3210173,113.345253 L67.3210173,113.53057 C67.5920131,113.696424 67.873729,113.843468 68.1642385,113.970697 C68.2671174,114.009768 68.3804162,114.009768 68.4832951,113.970697 C69.3493061,112.326011 74.8872181,103.778281 75.6164904,102.782204 C76.3457628,101.786127 82.0204133,93.8406751 82.818055,93.0994085 C83.1143219,92.8214335 83,92.960421 82.818055,92.7519397 C82.6357369,92.5434585 80.5390789,90.4354816 80.0832836,89.9258608 C79.6274884,89.41624 77.3257225,87.0534526 77.2345635,86.9144651 C77.1999535,86.8745756 77.1501503,86.8517239 77.0978249,86.8517239 C77.0454995,86.8517239 76.9956963,86.8745756 76.9610863,86.9144651 L76.2090242,87.8410484 C76.2090242,87.8410484 76.2090242,88.142188 76.2090242,88.142188 C77.2269961,89.3733844 77.896576,90.8626807 78.1461539,92.4508002 C78.2264642,94.7929046 77.5279812,97.0941896 76.1634447,98.9832122 C74.6365307,101.29967 73.2007757,102.921191 71.9929184,103.106508 C71.1283107,103.276209 70.2338512,103.187706 69.4176753,102.851697 C68.9846699,102.643216 65.3383081,100.141441 65.1787797,99.9792893 C65.0192514,99.8171372 61.3956794,97.2921978 61.0310432,97.0837165 C60.666407,96.8752353 60.7347763,96.8057415 60.7803558,96.6667541 C60.8259353,96.5277666 64.9280924,90.7366211 65.3383081,90.3659878 C65.9876435,89.6740354 66.8624992,89.2458807 67.7996023,89.1614296 C68.672114,89.2440865 69.5065984,89.5641654 70.215317,90.0880128 C70.5343737,90.3659878 70.6483225,90.0880128 70.6483225,90.0880128 C70.6483225,90.0880128 71.0585382,89.3235816 71.1496972,89.1845941 C71.2408563,89.0456066 71.1496972,88.8834546 71.1496972,88.8834546 L67.1842787,85.9415527 L63.2644398,83.0691445 C63.2644398,83.0691445 62.9453831,83.0691445 62.9453831,83.0691445 L62.4667982,83.764082 C62.3452528,83.9288079 62.3452528,84.155306 62.4667982,84.320032 C63.1641925,84.8639493 63.6746729,85.6179413 63.9253429,86.4743381 C64.1524275,87.2292411 64.1524275,88.0358932 63.9253429,88.7907962 C63.3313657,89.9398347 62.6613254,91.0465578 61.9198439,92.1033314 C61.6007872,92.6129522 59.4357599,95.670677 59.4357599,95.670677 L59.1167032,95.670677 C59.1167032,95.670677 54.7638588,92.7982689 54.3080636,92.4276356 C53.8522684,92.0570023 50.2514861,89.6015566 50.0919578,89.4857337 C49.9324294,89.3699108 49.9096397,89.3467462 49.978009,89.1614296 C51.0423025,87.4586754 52.1908621,85.8118754 53.4192629,84.2273736 C54.8094384,82.4205362 57.3618916,79.3628115 59.1622828,79.1543302 C60.5165245,78.9961489 61.8881473,79.1873509 63.150491,79.7102802 C63.2644398,79.7102802 63.3555988,79.7102802 63.5151272,79.7102802 C63.6969985,79.4738382 63.8644375,79.2262849 64.0165019,78.9690136 C64.0165019,78.9690136 64.1532405,78.7142032 64.0165019,78.5983803 C63.8797634,78.4825573 61.5779975,77.0463533 61.236151,76.7915429 C60.8943046,76.5367325 58.660908,75.123693 58.660908,75.123693 C58.6004121,75.045589 58.5080173,75 58.4102206,75 C58.312424,75 58.2200292,75.045589 58.1595333,75.123693 C57.7948971,75.5174909 51.1630766,84.3895257 50.2059066,85.8257298 C49.2487366,87.2619338 43.1410806,96.5509311 43.0499215,96.6899186 C42.9833595,96.7613824 42.9833595,96.8732653 43.0499215,96.944729 L43.9159325,97.5470082 C43.9811735,97.5767382 44.0557993,97.5767382 44.1210403,97.5470082 C44.5542872,96.7786439 45.1544914,96.1210299 45.8758519,95.6243479 C46.3903783,95.2926716 47.0141417,95.1842204 47.6078738,95.3232083 C48.1320383,95.4853604 48.6334131,95.6938416 48.7929414,95.7633354" id="Path" fill="#FFFFFF" fill-rule="nonzero"></path>
            <path d="M82.5055982,52.1892064 C82.8469314,51.9369312 83.0289758,51.9369312 83.2337757,52.1892064 C83.4385756,52.4414817 94.9073711,59.3905178 96.0451484,60.0326729 C97.1829257,60.6748281 105.8983,66.0184763 106.990566,66.5000927 C107.880764,66.9008792 108.823299,67.1711848 109.789498,67.3027867 C110.555594,67.384973 111.330276,67.306897 112.065053,67.0734455 C112.422675,66.9267997 112.797358,66.8266139 113.180075,66.7753021 L113.566919,66.7753021 L113.999275,67.4403913 C114.006799,67.5566631 113.955414,67.6688705 113.862741,67.7385348 C113.703452,67.8761395 110.017054,70.0319461 108.310388,71.2703881 L101.256169,75.8572107 C101.208623,75.9155472 101.137653,75.9493572 101.062746,75.9493572 C100.98784,75.9493572 100.91687,75.9155472 100.869324,75.8572107 L100.368702,75.1462532 C100.368702,75.1462532 100.368702,75.1462532 100.368702,74.9398462 C101.081484,74.4838507 101.706045,73.9010158 102.211901,73.2197877 C102.502503,72.789003 102.638936,72.2713452 102.598746,71.7520045 C102.531529,71.3010769 102.351402,70.8748514 102.075368,70.5135624 C101.088234,69.6173351 99.9953241,68.8470651 98.8213251,68.2201512 L95.4762597,66.156081 C95.4762597,66.156081 95.0894154,65.949674 94.86186,66.156081 C94.6343045,66.362488 87.1477297,72.256555 86.9656853,72.3712255 C86.8375497,72.4702793 86.7423176,72.6062501 86.6926188,72.7611055 C87.166345,74.7624775 87.7436073,76.7375088 88.4220403,78.6781065 C88.6040847,79.1597229 89.4232843,80.6963084 90.697595,80.9715178 C91.5989537,81.1470932 92.5328683,80.975214 93.3144828,80.4899014 C93.6793548,80.2629672 94.0222027,80.0018939 94.3384824,79.7101416 C94.3384824,79.7101416 94.611549,79.7101416 94.7708378,79.7101416 C94.9710817,79.8504019 95.1413243,80.0297794 95.2714598,80.2376262 C95.3906171,80.375706 95.3906171,80.5811627 95.2714598,80.7192425 C95.1349265,80.9027154 91.3802613,83.9529524 91.0844392,84.2052277 C90.7886171,84.4575029 87.033952,87.8517516 86.9201742,87.9205539 C86.8063965,87.9893562 86.6015966,88.0581586 86.578841,87.9205539 C86.3694922,87.6940997 86.172009,87.4567913 85.9871968,87.2095964 C85.9871968,87.2095964 85.827908,87.2095964 85.9871968,86.9802553 C86.7617819,86.3258605 87.2981877,85.4302146 87.5118184,84.4345688 C87.7182676,82.7771676 87.5629424,81.0943193 87.0567075,79.5037346 C86.7381299,78.3111607 84.3943086,70.5135624 84.0529754,69.1833839 C83.7116422,67.8532054 80.7761767,57.7163276 80.6623989,57.4411182 C80.6106909,57.2250562 80.469957,57.0415007 80.2755547,56.9365677 L78,55.8815986 C78,55.8815986 78,55.6522574 78,55.6522574 C78,55.6522574 80.0024881,54.1844742 80.5258657,53.7716602 C81.0492432,53.3588462 82.164265,52.5561522 82.5283538,52.303877 M87.9896849,61.477522 L93.405505,64.8488366 C93.5420383,64.8488366 93.5420383,64.9405731 93.405505,65.124046 C93.405505,65.2387165 90.5610617,67.4174572 90.242484,67.6238642 L86.5105744,70.4906283 C86.3740411,70.4906283 86.1009746,70.6511671 86.0554635,70.4906283 C86.0099524,70.3300895 84.6446196,65.7203329 84.4398197,64.9405731 C84.2350197,64.1608132 82.664887,58.7254285 82.6421315,58.5648897 C82.6193759,58.404351 82.6421315,58.1291416 82.8469314,58.3126145 C83.0517313,58.4960874 87.4663073,61.0188398 87.9669294,61.3628515 L87.9896849,61.477522 Z" id="Shape" fill="#FFFFFF"></path>
            <path d="M141.611093,52.9687685 C141.611093,53.7859842 141.971427,56.4419353 141.971427,56.6008384 C142.00813,56.6817166 142.009532,56.7743968 141.975292,56.8563654 C141.941052,56.9383341 141.874303,57.0020903 141.79126,57.0321467 C141.588572,57.0321467 133.345947,59.6653973 131.116385,60.4599126 C128.886822,61.2544279 119.855968,65 119.518155,65 C119.180343,65 119.157822,65 119.157822,65 C119.056529,64.7122013 118.936146,64.431596 118.797489,64.1600838 C118.731712,64.090052 118.731712,63.9804108 118.797489,63.910379 C119.337325,63.6840185 119.863693,63.4263149 120.373947,63.1385642 C120.909326,62.8492104 121.348049,62.4069884 121.635114,61.8673397 C121.931195,61.3200525 122.026861,60.6852279 121.905364,60.0740052 C121.747718,59.4156925 117.558843,49.1323946 117.063384,47.9519719 C116.567926,46.7715492 114.113155,40.4381273 113.797864,39.7571142 C113.479465,39.185071 113.001905,38.7194852 112.424093,38.4177885 C111.674055,38.0698164 110.821088,38.0211502 110.036884,38.2815858 C109.521968,38.4367515 109.017885,38.6263421 108.527988,38.8490968 C108.527988,38.8490968 108.325301,38.8490968 108.280259,38.8490968 C108.235218,38.8490968 108.03253,38.031881 108.010009,37.9637797 C107.987488,37.8956784 108.010009,37.7594758 108.010009,37.6913745 C108.010009,37.6232732 112.942072,35.5575334 113.887947,35.171626 L121.567551,32.0843666 C121.688354,31.9718778 121.874645,31.9718778 121.995447,32.0843666 L122.33326,32.9696836 C122.364295,33.0819885 122.305889,33.1997323 122.198135,33.2420889 C121.461156,33.5332719 120.758673,33.906349 120.103697,34.3544103 C118.963325,35.2094101 118.56936,36.7505627 119.157822,38.0545815 C119.855968,39.847916 122.490905,46.499144 122.87376,47.5433641 C123.256614,48.5875842 126.184322,56.1922305 126.792385,57.1456489 C127.586404,58.5514758 129.276188,59.167344 130.778572,58.5984768 C133.469416,57.9166484 135.903883,56.4569438 137.782552,54.398896 C138.750495,52.8765352 139.366254,51.1541781 139.584218,49.359399 C139.584218,48.9053903 139.831947,48.837289 140.012114,48.7918881 L140.845385,48.6556855 C141.048072,48.6556855 141.003031,48.6556855 141.048072,48.9053903 C141.093114,49.1550951 141.430927,52.1969536 141.430927,52.9687685" id="Path" fill="#FFFFFF" fill-rule="nonzero"></path>
            <path d="M141.67811,26.0008858 C143.486297,25.9629681 145.085805,27.1459587 145.548308,28.8632699 C146.290236,30.8984653 146.1121,33.1479726 145.058705,35.0460196 C144.208373,36.4042683 142.919883,37.4441021 141.398337,38 C141.235136,38 141.25845,38 141.211821,38 C141.165192,38 140.722218,37.0840371 140.675589,37.0153399 C140.688862,36.9236022 140.739309,36.841023 140.815475,36.7863491 C141.633432,36.4396113 142.371109,35.9332162 142.983719,35.2979094 C143.48118,34.6355327 143.743306,33.830981 143.729781,33.0080021 C143.7533,32.4432285 143.649817,31.8803032 143.426694,31.3592689 C143.240178,31.0615809 143.100291,31.0386818 142.960405,31.2218744 C142.590259,31.6551528 142.093976,31.9667954 141.538223,32.1149383 C140.367806,32.3281973 139.179461,31.8433717 138.507345,30.8783883 C137.723368,29.7503382 137.860037,28.2354153 138.833747,27.2603348 C139.581356,26.4995305 140.602067,26.0557896 141.67811,26.0237849" id="Path" fill="#FFFFFF" fill-rule="nonzero"></path>
            <path d="M175.488976,27.6495791 C175.488976,28.7160781 175.488976,31.234831 175.488976,31.4163627 C175.488976,31.5978944 175.488976,31.6886603 175.309538,31.6886603 L174.47964,31.6886603 C174.255343,31.6886603 174.098335,31.5525115 174.098335,31.4163627 C174.021898,30.1814248 173.540411,29.0075783 172.730124,28.080717 C171.65579,26.2639385 169.807107,25.0562372 167.728304,24.8131457 C165.773838,24.513014 163.776913,24.9058369 162.076022,25.9250276 C161.029811,26.6985993 160.422626,27.9400451 160.449431,29.2507452 C160.476236,30.5614453 161.133657,31.7764215 162.2106,32.5055531 C165.462905,35.0469975 168.939507,35.0016145 172.707694,37.2253783 C176.475882,39.4491421 177.485218,41.1963851 177.933812,43.7151379 C178.293844,46.5090396 177.167997,49.2874779 174.973093,51.0217904 C172.396968,52.8529133 169.349669,53.8857911 166.203085,53.9943726 C163.222089,54.0575086 160.253401,53.5889574 157.433077,52.6101931 C155.190108,51.679843 156.334022,52.0882894 156.334022,52.0882894 C156.181723,52.0106548 156.086109,51.8523693 156.087296,51.679843 C156.087296,51.4075453 155.593843,45.2354663 155.548983,45.0085516 C155.504124,44.7816369 155.548983,44.690871 155.705991,44.6227966 C156.034587,44.6003805 156.364302,44.6003805 156.692897,44.6227966 C156.894764,44.6227966 156.894764,44.8497113 156.939624,45.0539345 C157.292537,46.6548417 158.067661,48.1290823 159.182593,49.3199304 C160.874714,51.1513267 163.192232,52.2627642 165.664772,52.4286614 C167.907741,52.4286614 172.236671,51.0898648 172.393679,47.8903679 C172.550687,44.690871 170.823601,43.0343939 166.696538,41.5594486 C162.569476,40.0845032 157.724663,38.1103455 156.49103,36.1361879 C155.246509,34.4835003 154.748805,32.376397 155.120309,30.3330378 C155.491813,28.2896785 156.698057,26.4996442 158.442413,25.4031239 C163.287226,21.5682659 171.900226,23.1339771 174.883374,24.5635396 C175.264679,24.7450713 175.511405,24.9946775 175.511405,25.1762092 C175.511405,25.3577409 175.511405,26.6511546 175.511405,27.7176535" id="Path" fill="#FFFFFF"></path>
            <path d="M210.858222,30.9514624 C211.708465,31.1757483 217.752084,33.3737508 217.935921,33.418608 C218.119757,33.4634652 218.257634,33.5980368 218.211675,33.7326084 L217.9589,34.4951807 C217.9589,34.6746095 217.775064,34.7643238 217.430371,34.6521809 C217.085678,34.5400379 215.47711,33.7774656 214.511969,34.6521809 C213.546829,35.5268961 213.707685,35.5493247 213.753644,36.2446112 C213.799603,36.9398977 214.213235,41.4031885 214.351112,42.6367614 C214.48899,43.8703342 215.040499,48.5130538 215.155396,48.8046255 C215.270294,49.0961973 215.431151,49.1859117 215.683926,48.9840543 C215.936701,48.782197 219.222775,46.0683367 220.279834,45.2384786 C221.336892,44.4086205 223.864642,42.434904 224.43913,41.8741891 C224.98555,41.3825721 225.349269,40.7277958 225.473209,40.0126155 C225.589612,38.835234 224.924039,37.7164508 223.818683,37.2314695 C223.382071,37.0520407 223.313133,36.872612 223.405051,36.7156118 C223.517099,36.5152553 223.60943,36.3049807 223.680805,36.0876111 C223.826608,35.96684 224.040553,35.96684 224.186355,36.0876111 C224.508069,36.2221826 227.863082,37.6800414 228.667365,37.9940418 C229.471649,38.3080422 233.263273,40.1023299 233.722864,40.2369015 C234.182455,40.3714731 233.95266,40.3939017 233.860741,40.5733305 C233.768823,40.7527592 233.630946,41.0891882 233.516048,41.3134742 C233.401151,41.5377601 233.355192,41.3134742 233.125396,41.3134742 C232.189113,40.9880349 231.200776,40.8285273 230.206995,40.8424736 C228.840588,41.1702299 227.562877,41.7822924 226.46133,42.6367614 C225.473209,43.4666195 216.373312,50.5316275 216.028619,50.7559135 C215.683926,50.9801995 215.270294,51.3166284 215.155396,51.6530574 C215.040499,51.9894863 212.558708,57.9779217 212.214015,59.1217802 C211.886505,60.0473728 212.212092,61.0733516 213.018299,61.6562116 C213.707685,62.0599264 214.925601,62.6879271 215.155396,62.8000701 C215.385192,62.912213 215.546048,63.0692132 215.47711,63.2262134 C215.415404,63.4611987 215.322711,63.6873737 215.201355,63.8990713 C215.201355,64.0336429 215.040499,64.0336429 214.810703,63.8990713 L208.629207,61.4543542 C207.181496,60.8936393 201.551509,58.9423514 201.344693,58.852637 C201.207061,58.7844693 201.088695,58.6843446 201,58.5610652 C201,58.5610652 201.183836,58.0900647 201.298734,57.8882073 C201.413632,57.68635 201.298734,57.6414928 201.666407,57.7312071 C202.387823,58.0557722 203.170153,58.231394 203.964361,58.2470649 C204.814023,58.3509985 205.664508,58.0604656 206.262315,57.462064 C206.947458,56.3731385 207.509899,55.2150668 207.939821,54.00806 C208.284514,53.3127735 209.341573,50.4194845 209.433491,50.2176272 C209.520028,49.9634245 209.574056,49.6997604 209.594348,49.4326263 C209.594348,49.2083403 208.675166,42.7040472 208.46835,41.4929029 C208.261534,40.2817587 207.595128,35.4820389 207.388312,34.2260375 C207.229076,33.2204054 206.809917,32.2709625 206.170396,31.4673201 C205.491381,30.9015429 204.712773,30.4607772 203.872442,30.1664615 C203.596688,30.1664615 203.596688,29.9646041 203.642647,29.8300325 C203.688606,29.6954609 203.849463,29.359032 203.895422,29.2020318 C203.941381,29.0450316 204.079258,28.9553172 204.332033,29.022603 C204.584808,29.0898888 209.985,30.7720336 210.835243,30.9963196" id="Path" fill="#FFFFFF" fill-rule="nonzero"></path>
            <path d="M255.668904,54.5715347 C255.985724,54.8257273 256.053614,55.0105946 255.963094,55.2647873 C255.872574,55.5189799 252.274398,68.5521287 251.980208,69.8693086 C251.686018,71.1864885 249.174084,80.9151333 249.038304,82.0936627 C248.907432,83.0673551 248.907432,84.0547396 249.038304,85.028432 C249.203459,85.7895638 249.477992,86.5215539 249.852985,87.2006235 C250.056655,87.4779245 250.531886,88.0094182 250.531886,88.0094182 C250.531886,88.0094182 250.645036,88.0094182 250.531886,88.3560445 L250.011395,88.9568634 C249.905254,89.0143789 249.778085,89.0143789 249.671945,88.9568634 C249.490904,88.9568634 246.57163,86.0914193 245.032788,84.7742394 L238.583228,79.251327 C238.516647,79.2091913 238.476139,79.1348924 238.476139,79.0549055 C238.476139,78.9749186 238.516647,78.9006196 238.583228,78.8584839 L239.103719,78.1883397 C239.103719,78.1883397 239.103719,78.1883397 239.330019,78.1883397 C240.007207,78.7473534 240.772411,79.1849263 241.593022,79.4824112 C242.083391,79.6604443 242.618867,79.6604443 243.109235,79.4824112 C243.537874,79.3210899 243.908664,79.0310763 244.172846,78.6505081 C244.680278,77.4716295 245.059708,76.2395338 245.304348,74.9762694 L246.36796,71.1633801 C246.36796,71.1633801 246.36796,70.7012117 246.232179,70.5625612 C246.096399,70.4239107 238.289038,64.7854562 238.107997,64.6236973 C237.980303,64.5370933 237.83127,64.4890356 237.678027,64.4850468 C237.451726,64.4850468 232.903089,67.4660329 232.473119,67.7895508 C231.612791,68.4554855 231.050242,69.4461884 230.911647,70.5394528 C231.018417,71.4293578 231.436297,72.2499615 232.088408,72.8502948 C232.414231,73.1333444 232.762411,73.3884055 233.12939,73.6128726 C233.12939,73.6128726 233.2878,73.8670652 233.24254,74.0288242 C233.156923,74.2630858 233.03464,74.4816053 232.880459,74.6758599 C232.736441,74.7733748 232.549247,74.7733748 232.405229,74.6758599 C232.178928,74.6758599 228.263933,71.8104159 227.879222,71.5793317 C227.494511,71.3482475 223.353215,68.6907792 223.194805,68.5983455 C223.036395,68.5059118 222.968505,68.3210445 223.013765,68.2748276 C223.059025,68.2286108 223.443735,67.581575 223.511625,67.4891414 C223.579516,67.3967077 223.511625,67.304274 223.715296,67.4891414 C224.570972,68.0436926 225.578462,68.3029147 226.58931,68.2286108 C228.207984,67.9694939 229.75224,67.3545024 231.115317,66.426154 C232.178928,65.7791183 239.013199,61.3654101 240.16733,60.6259407 C241.321462,59.8864712 250.192435,54.2711252 250.463996,54.0862578 C250.663634,53.9883114 250.806251,53.7998466 250.848706,53.5778726 C250.848706,53.3698968 251.188157,51.2670306 251.210787,51.0821633 C251.233417,50.8972959 251.482347,51.0821633 251.482347,51.0821633 L253.949021,53.0001621 L255.849944,54.5484262 M248.540443,62.405289 C248.359403,62.9598911 246.84319,68.459695 246.82056,68.5752371 C246.79793,68.6907792 246.70741,68.7832129 246.57163,68.7138876 C246.43585,68.6445623 243.607095,66.587913 243.290275,66.4030456 L239.533689,63.5838184 C239.420539,63.5838184 239.284759,63.2371921 239.420539,63.1447584 C239.556319,63.0523247 243.584465,60.4410733 244.263366,60.0251217 C244.942267,59.6091702 249.739835,56.5819672 249.898245,56.5126419 C250.056655,56.4433167 250.328216,56.5126419 250.192435,56.6744009 C250.056655,56.8361598 248.540443,61.8506869 248.359403,62.4283974 L248.540443,62.405289 Z" id="Shape" fill="#FFFFFF"></path>
            <path d="M274.540836,74.0210545 C274.540836,73.8628934 274.40073,73.7725157 274.540836,73.7047323 L275.264714,73.0494937 C275.336753,72.9835021 275.449535,72.9835021 275.521574,73.0494937 C275.521574,73.0494937 283.414182,82.3132128 284.091359,83.1718014 C284.768535,84.03039 290.069192,89.6338104 289.999139,94.6949643 C290.036995,97.035384 288.824236,99.2290873 286.791217,100.497628 C284.758198,101.766169 282.192642,101.930017 280.004949,100.931029 C278.659892,100.344481 277.403096,99.5844302 276.268803,98.6715852 C275.755083,98.2874797 275.614978,98.1067243 275.544925,98.6715852 C275.474872,99.2364461 275.311416,100.47914 275.077907,101.586268 C274.844398,102.693395 273.349939,106.398883 272.85957,107.528604 C272.369201,108.658326 271.31841,111.505225 270.968146,112.815703 C270.607926,113.873272 270.551428,115.00567 270.80469,116.091896 C270.964964,116.454469 271.14422,116.808908 271.341761,117.153835 C271.341761,117.33459 271.341761,117.470157 271.225006,117.53794 L270.454426,117.922045 C270.405899,117.9718 270.338322,118 270.267619,118 C270.196916,118 270.129339,117.9718 270.080812,117.922045 C270.080812,117.786479 268.563002,115.210713 268.025931,114.419908 L265.480682,110.285126 C265.480682,110.10437 265.293875,110.10437 265.480682,109.833237 C265.667489,109.562104 267.161948,104.90765 267.605615,104.003872 C268.049282,103.100095 270.454426,97.7904021 270.781339,96.8640302 C271.554883,95.6685771 271.554883,94.1506458 270.781339,92.9551926 C269.590443,91.4187709 269.100073,90.8765044 269.100073,90.8765044 C269.100073,90.8765044 268.819862,90.5149934 268.609704,90.8765044 C268.399546,91.2380154 261.604431,96.2765749 260.717096,96.9770024 C259.980992,97.8506084 259.768608,99.0322544 260.156674,100.095035 C260.568144,100.807201 261.036593,101.487111 261.557729,102.128534 C261.697834,102.30929 261.721185,102.354478 261.557729,102.490045 L260.950605,103.032312 C260.950605,103.032312 260.693745,103.032312 260.55364,103.032312 C260.413534,103.032312 256.794143,98.1519131 255.883458,97.0899746 C254.972772,96.0280361 251.213275,91.8706597 251.096521,91.735093 C250.979766,91.5995264 250.956415,91.4865542 251.096521,91.4187709 L251.750346,90.9442877 C251.937154,90.8087211 252.030557,90.9442877 252.240715,91.0798544 C252.822287,91.7463335 253.517241,92.3117944 254.295596,92.7518427 C255.184798,93.0764161 256.180154,92.9759176 256.98095,92.4807095 C258.101794,91.7576875 265.013664,86.560967 266.181209,85.7023784 C267.348755,84.8437898 274.377379,79.5115026 275.124609,78.8110751 C275.849407,78.0973198 276.117533,77.0595585 275.825136,76.0997427 C275.534732,75.4049581 275.124107,74.7631298 274.610888,74.20181 M280.145054,82.1098629 C279.724738,82.3809961 270.80469,89.2948938 270.477777,89.4756493 C270.150864,89.6564048 270.244268,89.7919715 270.337672,89.9049436 C271.910843,91.9509021 273.643894,93.8770797 275.521574,95.6665251 C277.292186,96.8692942 279.556521,97.1642337 281.592811,96.4573304 C283.708146,95.5771609 285.273296,93.7866003 285.819326,91.6221208 C286.041467,89.6937952 285.499007,87.7557538 284.301517,86.199456 C283.291183,84.792976 282.199744,83.4427009 281.032389,82.1550518 C280.79888,81.7483519 280.495318,81.6353797 280.004949,81.9291074 L280.145054,82.1098629 Z" id="Shape" fill="#FFFFFF"></path>
            <path d="M297.18001,116.486667 C295.7999,117.090849 278.808716,123.580212 277.383357,124.050132 C276.232802,124.429386 274.965375,124.053319 274.215893,123.110293 C273.795436,122.549896 273.460061,121.93172 273.220404,121.27537 C273.220404,121.11873 273.039406,121.096353 272.903658,121.27537 C272.767909,121.454387 272.496412,121.454387 272.224915,121.566272 C271.953418,121.678158 271.953418,121.834798 272.089167,122.036192 C272.224915,122.237586 273.944396,126.265466 274.691013,128.436046 C275.437629,130.606626 278.084725,137.655417 278.808716,139.042798 C280.725244,142.381266 283.781107,144.935643 287.428745,146.248229 C292.338618,147.842759 297.731067,146.865386 301.750209,143.652484 C305.51265,140.624818 307.456851,135.910286 306.908651,131.143677 C306.284222,127.58698 305.212545,124.121476 303.718561,120.827827 C303.37919,119.887989 300.166476,111.429439 300.075977,111.205668 C299.985478,110.981897 299.894979,110.95952 299.646107,111.049029 L298.876866,111.362308 C298.650618,111.362308 298.876866,111.653211 298.876866,111.80985 C299.152623,112.413656 299.284224,113.072118 299.261487,113.734282 C299.268859,115.034386 298.428291,116.191072 297.18001,116.598553 M301.818083,121.073976 C301.591835,121.185861 291.750071,124.855708 290.121089,125.549398 C288.492108,126.243089 281.320063,128.771703 280.618696,129.10736 C279.917329,129.443016 278.559844,130.002444 278.175224,131.345071 C277.944458,132.39997 278.039035,133.499086 278.446721,134.500244 C279.05366,136.004359 279.935673,137.384962 281.048566,138.572879 C282.940247,140.476972 285.521634,141.556214 288.220611,141.571412 C292.241892,141.488991 296.141637,140.192893 299.397235,137.856811 C302.153786,135.932621 303.986971,132.970112 304.465178,129.666787 C304.849799,127.429076 302.632574,122.28234 302.338452,121.633403 C302.04433,120.984467 302.112205,120.827827 301.818083,120.939713 L301.818083,121.073976 Z" id="Shape" fill="#FFFFFF"></path>
            <path d="M34.3119069,217.08235 C34.3119069,216.943603 34.1764519,216.78173 34.018421,216.874229 C33.8603902,216.966727 33.2282668,217.267348 33.0702359,217.313597 C32.9122051,217.359846 33.0702359,217.498594 33.0702359,217.591093 C33.0702359,217.683591 35.3278194,223.094758 35.5987295,223.719123 C35.8696395,224.343489 38.7593464,230.841514 38.8722256,231.07276 C38.9851047,231.304007 39.0979839,231.304007 39.2334389,231.234633 C39.3688939,231.165259 39.7301073,230.887763 39.8881381,230.818389 C39.9902355,230.690602 39.9902355,230.506808 39.8881381,230.379021 C39.5458909,229.645394 39.3028457,228.867415 39.1657114,228.066557 C39.1207265,227.219112 39.4047683,226.387836 39.9558656,225.754092 C40.9050074,225.092937 41.9011262,224.505472 42.9358759,223.996619 C43.6808784,223.649749 48.8507447,221.221662 49.076503,221.152288 C49.3022614,221.082914 49.3474131,221.152288 49.4377164,221.383534 C49.8989952,222.269681 50.3134823,223.180562 50.6793873,224.112242 C50.7801888,224.791488 50.7022564,225.485982 50.453629,226.124086 C50.1601431,226.910324 47.9477113,230.749015 47.4961946,231.674001 C47.0446779,232.598987 44.154971,237.987029 43.9066368,238.611394 C43.6583026,239.23576 43.2519376,239.767627 43.3648167,239.975748 C43.4776959,240.18387 45.2611869,243.074451 45.6224003,243.606318 L48.2186213,247.861252 C48.2186213,248 48.6249863,248 48.6249863,248 L49.1668064,247.491258 C49.1668064,247.491258 49.5505956,247.329385 49.4151406,247.144388 C49.2796855,246.959391 48.6249863,246.126904 48.6249863,245.71066 C48.6029485,244.618357 48.7321632,243.528367 49.0087755,242.47321 C49.4151406,241.293853 52.3048475,235.397069 52.7112125,234.472083 C53.1175775,233.547097 53.9303076,231.465879 54.0657626,230.934012 L54.3366726,229.916528 C54.3366726,229.916528 54.3366726,229.615908 54.5850068,229.800905 C55.3586531,230.856303 56.2702124,231.797802 57.294107,232.598987 C59.05725,233.98221 61.2714132,234.619564 63.4798858,234.379584 C65.7758881,233.769275 67.6526361,232.078618 68.5368729,229.82403 C69.2791531,227.659453 69.1241574,225.277999 68.107932,223.233506 C67.0340636,220.431373 65.7666065,217.711191 64.3151917,215.093631 C63.72822,213.89115 60.2063897,205.450654 60.1386622,205.219408 C60.0709347,204.988161 60.0032072,204.965037 59.8451764,205.034411 L59.0550222,205.404405 C58.8969913,205.404405 58.8744155,205.589402 59.0550222,205.774399 C59.2924371,206.332254 59.4739737,206.913347 59.5968422,207.508748 C59.7743237,208.229933 59.6689701,208.993637 59.3033563,209.636215 C58.8326093,210.330185 58.1615824,210.855798 57.3844104,211.139317 C56.7071353,211.416813 49.7989298,214.700512 48.3540763,215.278628 C46.9092229,215.856744 39.0528322,219.510438 38.3304055,219.764809 C37.6490653,220.042828 36.8896172,220.042828 36.208277,219.764809 C35.6731799,219.508577 35.2363972,219.077446 34.9666061,218.539203 C34.7182719,218.099835 34.289331,217.221098 34.2216035,217.08235 M51.266359,220.181053 C50.9728732,220.342925 50.8374182,220.389175 50.9051457,220.574172 C50.9728732,220.759169 53.0046983,224.89848 53.1627292,225.199101 C53.9959335,227.209196 55.7714821,228.646002 57.8734269,229.011083 C59.9753717,229.376164 62.1140769,228.619214 63.5476133,227.002823 C64.8036046,225.824722 65.4542146,224.115938 65.3085285,222.377894 C64.9810288,219.908495 64.1337094,217.541447 62.8251866,215.440501 C62.7123074,215.209254 62.3962457,214.978008 62.1479116,215.093631 C61.8995774,215.209254 57.6327445,217.174849 57.2038037,217.406095 C56.7748628,217.637342 51.6275724,220.111679 51.3566624,220.111679 L51.266359,220.181053 Z" id="Shape" fill="#FFFFFF"></path>
            <path d="M62.7314821,257.201974 C62.0893673,257.872733 61.2151814,258.280101 60.2828466,258.34303 C59.4337713,258.290906 58.6240481,257.970932 57.9728131,257.430185 C57.5108064,257.087869 57.1874017,256.791194 57.0256993,256.654267 C56.863997,256.517341 56.8177963,256.494519 56.725395,256.654267 L56.1016859,257.247616 C56.040274,257.271866 56,257.330617 56,257.395954 C56,257.46129 56.040274,257.520041 56.1016859,257.544291 C56.2402879,257.658397 64.1406025,266.330422 65.5035223,267.608405 C66.8664421,268.886388 75.2980644,276.736854 75.5752684,276.896601 C75.8524725,277.056349 75.9448738,277.010707 76.0603755,276.896601 C76.1758771,276.782496 78.370409,275.23066 78.8093153,274.888343 C79.2482217,274.546026 81.5582552,273.062653 81.7430579,272.925726 C81.9278606,272.7888 81.9509609,272.674694 81.9047603,272.629052 C81.7338347,272.397452 81.5486841,272.176432 81.3503522,271.967239 C81.1886499,271.830313 81.0500479,271.716207 80.7959442,271.967239 C79.809046,272.233828 78.7926973,272.379455 77.7698003,272.400841 C75.715229,272.430795 73.6897631,271.918732 71.9023151,270.917468 C69.6959255,269.588887 67.8050327,267.806468 66.3582347,265.691431 C65.7336979,264.641946 65.7336979,263.340569 66.3582347,262.291084 C67.316121,261.093645 68.3916847,259.99286 69.5691813,259.004843 C70.2159907,258.434315 73.3807366,255.307821 73.6579406,255.102431 C73.9351446,254.897041 74.096847,254.760114 74.2816497,254.965504 C74.4664523,255.170894 78.2780076,258.685347 79.1096197,259.712297 C79.9412318,260.739248 80.4725395,261.150028 80.5418405,262.382369 C80.5811755,263.404504 80.3502903,264.419131 79.8719308,265.326293 C79.6409274,265.600147 79.4099241,265.782716 79.5023254,265.896821 C79.7197925,266.160463 79.9679014,266.397913 80.2415361,266.604276 C80.4263388,266.741203 80.4725395,266.741203 80.6342418,266.604276 C80.7959442,266.467349 83.7296867,263.454961 84.1916934,263.089823 C84.6537001,262.724685 86.9637337,260.442573 87.1716367,260.260004 C87.3795397,260.077435 87.4488407,259.96333 87.333339,259.849224 C87.2178373,259.735119 86.7327303,259.255875 86.640329,259.118948 C86.5479276,258.982022 86.4555263,259.118948 86.2938239,259.118948 C85.6852531,259.598424 84.9607602,259.913033 84.1916934,260.031793 C83.0379527,260.060038 81.9051235,259.724297 80.9576465,259.073306 C80.1722351,258.411494 75.8524725,254.235228 75.6214691,253.938554 C75.3904657,253.641879 75.3904657,253.573416 75.6214691,253.413668 C75.8524725,253.25392 78.924817,250.19589 79.4330244,249.739468 C79.9412318,249.283045 83.8451884,245.608845 84.0530914,245.51756 C84.2609944,245.426276 84.2609944,245.51756 84.3764961,245.51756 C86.1777048,246.91917 87.8336459,248.49394 89.3199678,250.218711 C92.2537104,253.504953 92.5540148,254.988325 92.3461117,257.93225 C92.3225709,258.358447 92.1785144,258.769581 91.9303057,259.118948 C91.841944,259.239155 91.8068003,259.389666 91.8329336,259.535965 C91.8590669,259.682264 91.9442352,259.811799 92.0689077,259.894866 C92.2675605,260.090212 92.5029876,260.245266 92.7619178,260.351289 C92.9929211,260.351289 93.0391218,260.351289 93.1777238,260.145899 C94.6792456,258.183282 96.8506771,255.581675 96.9199781,255.581675 C96.9892791,255.581675 97.0585801,255.399106 96.9199781,255.262179 C96.7813761,255.125252 91.0986936,250.127427 89.3199678,248.256095 C87.541242,246.384763 79.2251214,237.57581 79.0403187,237.279136 C78.855516,236.982461 78.716914,236.936819 78.5321113,237.073746 L77.9084023,237.644274 C77.7004993,237.804021 77.7698003,237.98659 77.9084023,238.146338 C78.4297425,238.604123 78.8605448,239.153528 79.1789207,239.766638 C79.402735,240.364258 79.4663947,241.008882 79.3637234,241.63797 C79.3637234,242.162856 78.578312,242.893131 78.2780076,243.258269 C77.9777033,243.623407 63.6092948,256.631446 62.7776828,257.31608" id="Path" fill="#FFFFFF" fill-rule="nonzero"></path>
            <path d="M95.3295976,284.493514 C94.8538495,285.260846 94.2209582,285.918309 93.4727458,286.422455 C92.6444038,286.802107 91.7046699,286.859406 90.8364748,286.5832 C90.4862362,286.463102 90.1484379,286.309293 89.8278146,286.123929 C89.7131941,286.123929 89.5985736,286.123929 89.5756495,286.123929 L89.0713194,286.950618 C89.0713194,286.950618 88.9108507,287.203217 89.0713194,287.272108 C89.2317881,287.340999 92.6016302,289.361795 93.0830362,289.568467 C93.5644422,289.775139 98.2180336,292.370025 98.3555782,292.46188 C98.4931228,292.553734 98.6306673,292.576697 98.6535914,292.46188 C98.6765155,292.347062 99.0433011,291.750008 99.1120734,291.658154 C99.1808456,291.566299 99.1120734,291.405554 99.1120734,291.382591 C99.1120734,291.359627 97.9887927,290.73961 97.6449312,290.487011 C97.1318982,290.042463 96.7179451,289.49479 96.4299542,288.879559 C96.2465378,288.210694 96.2465378,287.504665 96.4299542,286.8358 C96.7103815,286.135677 97.0477355,285.459806 97.4386144,284.815004 C97.6449312,284.539441 106.92919,270.738323 107.112583,270.46276 C107.295976,270.187197 107.525217,270.095342 107.479368,270.46276 C107.43352,270.830177 107.04381,280.245249 107.04381,281.600101 C107.04381,282.954953 107.04381,290.601829 106.677025,294.57453 C106.677025,294.941947 106.42486,295.883455 106.379012,296.021236 C106.333164,296.159018 106.241467,296.36569 106.379012,296.434581 C106.516556,296.503471 107.616913,297.100525 107.777382,297.123488 C107.93785,297.146452 108.075395,297.00867 108.212939,296.916816 C108.350484,296.824962 111.651554,293.013006 112.63729,292.163353 C113.623026,291.3137 118.987264,286.5832 120.293938,285.480948 C121.600611,284.378696 126.758533,279.717087 127.010698,279.533378 C127.262863,279.349669 127.790117,278.798543 127.606724,279.533378 C127.423332,280.268213 125.314315,286.192819 124.626592,288.075834 C123.938869,289.958848 121.852776,296.480508 121.463067,297.467942 C121.231342,298.357487 120.675131,299.127691 119.904228,299.62652 C119.166823,299.880443 118.374243,299.92808 117.611819,299.764301 C117.293661,299.680861 116.979957,299.581223 116.671931,299.465775 C116.671931,299.465775 116.419766,299.465775 116.373917,299.465775 C116.21836,299.763512 116.080574,300.070232 115.961284,300.384318 C115.961284,300.545063 115.961284,300.590991 115.961284,300.659881 L121.325522,302.451041 L129.646969,305 C129.853286,305 130.013754,305 130.013754,305 C130.013754,305 130.220071,304.311092 130.26592,304.173311 C130.311768,304.035529 130.26592,303.943675 130.26592,303.874784 C129.567121,303.658991 128.891381,303.374384 128.248599,303.025131 C127.579574,302.503457 127.129774,301.749768 126.987774,300.912481 C127.047395,299.971361 127.240362,299.043523 127.560876,298.15685 C127.560876,297.720542 129.853286,291.129991 130.242995,289.52254 C130.632705,287.915089 133.314824,279.877832 133.635762,279.028179 C133.970873,278.340908 134.591605,277.836745 135.332145,277.650364 C135.937751,277.532072 136.560466,277.532072 137.166072,277.650364 C137.622684,277.729271 138.068783,277.860249 138.49567,278.040745 C138.617432,278.048255 138.732917,277.985964 138.793683,277.879999 C138.845972,277.593019 138.91486,277.309323 139,277.030347 C139,277.030347 139,277.030347 138.88538,276.869601 C138.770759,276.708856 135.034131,275.652531 134.667346,275.491786 L130.082527,273.861371 C129.922058,273.861371 129.830362,273.861371 129.784513,273.861371 C129.738665,273.861371 129.050942,275.124369 128.775853,275.468822 C127.402554,277.079926 125.940792,278.613203 124.397351,280.061541 C122.678044,281.554174 115.43403,287.524708 114.631686,288.397324 C114.27973,288.782405 113.887807,289.128815 113.462557,289.430686 C113.164544,289.706249 113.004075,289.26994 113.004075,289.26994 C113.004075,289.26994 113.233316,282.909026 113.164544,281.186757 C113.095772,279.464487 113.302089,273.310245 113.53133,271.473158 C113.760571,269.63607 114.012736,268.533818 114.196128,267.661202 C114.196128,267.316748 114.494142,267.087112 114.196128,266.926367 C113.898115,266.765622 111.330616,265.41077 110.23026,264.630008 L105.805909,262.081049 C105.754293,262.029164 105.684178,262 105.611055,262 C105.537931,262 105.467816,262.029164 105.4162,262.081049 L104.866021,262.769957 C104.799067,262.840801 104.799067,262.951713 104.866021,263.022556 C105.767634,263.473372 106.505293,264.196238 106.975038,265.08928 C107.42969,266.205656 107.264223,267.479335 106.53948,268.441964 L102.344371,274.61917 C102.000509,274.94066 96.1319409,283.529043 95.4671421,284.424623" id="Path" fill="#FFFFFF" fill-rule="nonzero"></path>
            <path d="M150.993845,294.091479 C150.993845,294.947313 150.162151,304.407758 150.092843,304.847241 C150.148825,305.585015 149.898035,306.313189 149.399765,306.85961 C148.920097,307.667051 148.025181,308.132972 147.089503,308.062405 L145.356807,308.062405 C145.125781,308.062405 145.03337,308.062405 145.010268,308.270581 C144.987165,308.478757 145.010268,308.779455 145.010268,308.964501 C145.010268,309.149546 145.010268,309.334592 145.195089,309.357722 C145.37991,309.380853 156.353652,310.583648 157.993938,310.629909 C159.634223,310.676171 173.287869,311 173.287869,311 C173.287869,311 174.905052,304.199582 174.97436,304.060798 C175.043668,303.922014 174.97436,303.7601 174.743334,303.736969 L173.911639,303.736969 C173.703716,303.736969 173.5651,303.736969 173.47269,303.898884 C172.712001,305.491078 171.444168,306.784862 169.868682,307.576661 C167.785955,308.852003 165.378335,309.494815 162.937897,309.427114 C160.884472,309.680555 158.811594,309.143102 157.139141,307.923621 C156.344883,307.028279 156.004328,305.81784 156.215036,304.639065 C156.215036,303.297486 156.677088,296.150108 156.815704,295.803148 C156.95432,295.456188 156.977422,295.386796 157.277756,295.433058 C157.57809,295.479319 162.799282,295.664364 163.769591,295.803148 C164.90136,295.852834 165.986975,296.266517 166.865342,296.982813 C167.673362,297.691981 168.198418,298.669444 168.343909,299.735363 C168.343909,300.221107 168.343909,300.313629 168.644243,300.313629 L169.614553,300.313629 C169.822477,300.313629 169.776271,300.151715 169.822477,299.9898 C169.868682,299.827885 170.261426,290.968838 170.261426,290.737531 C170.262324,290.636905 170.219543,290.540846 170.144179,290.474268 C170.068814,290.407689 169.968291,290.37715 169.868682,290.390571 L169.129398,290.390571 C168.875269,290.390571 168.829064,290.552486 168.829064,290.737531 C168.773206,291.486877 168.482096,292.199344 167.99737,292.77303 C167.348172,293.453729 166.49786,293.907779 165.571595,294.068348 C164.601285,294.207132 157.57809,293.813911 157.323962,293.744519 C157.069833,293.675126 156.908115,293.605734 156.908115,293.397558 C156.908115,293.189382 157.670501,282.479881 157.739809,282.271705 C157.809117,282.063529 157.739809,281.878484 158.109451,281.809092 C158.479092,281.7397 161.043483,281.809092 162.198614,281.809092 C164.252711,281.867461 166.295864,282.130914 168.297704,282.595534 C169.816891,283.069696 171.149812,284.007918 172.109635,285.278692 C172.461399,285.844865 172.762889,286.440835 173.010637,287.059754 C173.12615,287.337322 173.241664,287.2448 173.380279,287.2448 L174.281281,287.2448 C174.419897,287.2448 174.512307,287.2448 174.466102,286.967232 C174.419897,286.689663 174.304384,284.654164 174.235076,283.937113 C174.165768,283.220063 174.00405,280.698819 174.00405,280.698819 C174.00405,280.698819 164.231644,280.536905 162.914795,280.351859 C161.597946,280.166814 156.399857,279.889246 154.944392,279.773592 C153.488928,279.657939 148.221531,279.033411 148.013608,279.01028 C147.805684,278.98715 147.643966,279.01028 147.620863,279.01028 C147.597761,279.01028 147.620863,279.7042 147.620863,279.889246 C147.620863,280.074291 147.620863,280.213075 147.9443,280.213075 C148.267737,280.213075 150.254561,280.421251 150.739716,281.06891 C151.756231,282.317966 151.802437,282.688057 151.802437,283.381977 C151.802437,284.075898 151.016948,293.166252 150.970743,294.045217" id="Path" fill="#FFFFFF" fill-rule="nonzero"></path>
            <path d="M206.087926,304.889277 C204.984441,305.188243 193.701873,307.947923 193.386592,307.993918 C193.07131,308.039913 192.98123,307.809939 192.98123,307.809939 L192.98123,307.120019 C192.98123,307.120019 192.846109,306.821054 192.98123,306.729064 C193.641997,306.527659 194.288987,306.281817 194.917958,305.99315 C195.512627,305.740001 195.98862,305.262159 196.246644,304.659304 C196.413293,303.902171 196.413293,303.116703 196.246644,302.35957 C196.111523,301.784636 194.219835,294.264506 193.994634,293.390607 C193.769433,292.516708 191.202142,282.581858 191.021982,282.075916 C190.845115,281.431978 190.474926,280.860906 189.963537,280.443105 C189.376923,279.99352 188.641644,279.795491 187.914208,279.891169 L186.495442,280.167137 C186.157641,280.167137 186.135121,279.960161 186.135121,279.960161 C186.135121,279.960161 186,279.155254 186,279.155254 C186.062387,279.012983 186.188186,278.910211 186.337801,278.879286 C186.585523,278.879286 193.882034,277.20048 195.661121,276.579552 C198.767047,275.58168 201.924693,274.760184 205.119562,274.118837 C209.447999,273.547188 213.791234,275.058417 216.87739,278.209975 C219.963547,281.361534 221.443415,285.79681 220.883629,290.216974 C220.247134,295.80461 216.696109,300.601508 211.60535,302.750525 C209.150659,303.693416 207.258971,304.314344 206.155486,304.613309 M199.129216,290.538937 C199.421977,291.711802 201.583907,300.082833 202.056829,301.048721 C202.435881,302.345492 203.699118,303.152978 205.006961,302.934503 C207.115033,302.783563 209.159048,302.129795 210.974787,301.025724 C213.123784,299.339411 214.545379,296.864885 214.938324,294.126522 C215.387999,289.783082 214.37956,285.412474 212.078272,281.730956 C209.991112,278.301464 206.254835,276.28824 202.30455,276.464565 C200.276761,276.735655 198.283484,277.229114 196.359244,277.936395 C196.250497,277.97747 196.162728,278.061856 196.116031,278.170234 C196.069335,278.278612 196.067708,278.401703 196.111523,278.511329 C196.111523,278.994273 198.768895,289.619044 199.061656,290.814905 L199.129216,290.538937 Z" id="Shape" fill="#FFFFFF"></path>
            <path d="M223.255562,265.651986 C223.255562,265.651986 222.907714,265.927009 223.023663,266.110358 C223.139612,266.293708 223.441081,266.774999 223.53384,266.912511 C223.6266,267.050023 223.881688,266.912511 223.997637,266.912511 C224.435292,266.559916 224.91887,266.266996 225.435409,266.041602 C226.176963,265.733452 227.012842,265.733452 227.754395,266.041602 C228.606537,266.426341 229.289862,267.101674 229.679154,267.943849 C229.980622,268.379304 239.975454,283.986897 240.276922,284.445269 C240.807683,285.090668 241.080024,285.906292 241.042187,286.737133 C240.950437,287.467451 240.625509,288.149847 240.114593,288.685217 C239.905884,288.891485 238.630441,289.716556 238.491302,289.808231 C238.352163,289.899905 238.352163,289.99158 238.491302,290.083254 L239.163808,291 C239.163808,291 239.349327,291 239.442087,291 L245.332312,287.287181 L251.825474,283.184744 C251.941423,283.184744 252.034183,283.024314 251.987803,282.932639 C251.941423,282.840965 251.408056,282.130487 251.361677,282.061731 C251.301326,282.011674 251.213319,282.011674 251.152968,282.061731 C250.470503,282.507177 249.748678,282.890716 248.996311,283.207663 C248.285698,283.297553 247.565387,283.14385 246.955603,282.772209 C246.211866,282.240063 245.588032,281.561092 245.123603,280.778287 C244.451097,279.746948 234.688165,265.056101 234.131608,264.162274 C233.690924,263.551592 233.507957,262.795408 233.621431,262.053759 C233.900081,261.303672 234.352805,260.628604 234.943253,260.082756 C235.314291,259.830651 236.172316,259.143092 236.265075,259.097255 C236.357835,259.051418 236.450594,258.913906 236.381025,258.822231 C236.311455,258.730557 235.870848,258.088835 235.847658,258.042998 C235.772522,257.985667 235.667705,257.985667 235.592569,258.042998 C235.592569,258.042998 229.748724,261.893329 229.006648,262.328783 C228.264572,262.764237 223.441081,265.697823 223.325131,265.789497" id="Path" fill="#FFFFFF" fill-rule="nonzero"></path>
            <path d="M263.832363,266.472045 C264.547297,267.037259 265.010011,267.86003 265.120398,268.762354 C265.118806,269.586801 264.852886,270.389204 264.361377,271.052663 C264.039369,271.510725 263.763361,271.854271 263.648358,272.037496 C263.533355,272.220721 263.487354,272.266527 263.648358,272.335236 L264.269375,272.907814 C264.307728,272.965388 264.372497,273 264.44188,273 C264.511262,273 264.576031,272.965388 264.614384,272.907814 C264.614384,272.770395 272.940608,264.410767 274.159641,262.967872 C275.378673,261.524977 282.669869,252.730191 282.876875,252.455353 C283.08388,252.180516 282.991878,252.088904 282.876875,251.951485 C282.761872,251.814067 281.059826,249.936013 280.576813,249.409242 C280.0938,248.882471 278.506757,246.844096 278.276751,246.683775 C278.046745,246.523453 278.023744,246.50055 277.954743,246.546356 C277.720141,246.714181 277.510995,246.914727 277.333726,247.141836 C277.218723,247.302158 277.080719,247.439577 277.333726,247.691511 C277.681411,248.64407 277.905561,249.636927 278.000744,250.646009 C278.167618,252.65625 277.786179,254.674054 276.896714,256.486297 C275.695213,258.748608 274.025415,260.73138 271.997583,262.303683 C270.967518,262.9824 269.651664,263.061016 268.54749,262.50981 C267.269124,261.646505 266.075463,260.664952 264.982394,259.578215 C264.338377,258.959831 260.957286,256.096945 260.72728,255.845011 C260.497274,255.593077 260.35927,255.455658 260.543275,255.249531 C260.72728,255.043403 264.039369,251.058265 265.028395,250.187947 C266.017422,249.31763 266.385432,248.767956 267.650466,248.607634 C268.675529,248.501486 269.711007,248.651033 270.663547,249.042793 C270.962555,249.248921 271.16956,249.455049 271.284563,249.363436 C271.523768,249.126771 271.746616,248.874261 271.951581,248.607634 C271.951581,248.42441 272.089585,248.3557 271.951581,248.218282 C271.813578,248.080863 268.54749,245.424105 268.156479,244.966043 C267.765469,244.507981 265.281402,242.446703 265.074397,242.286381 C264.867391,242.12606 264.752388,242.011544 264.637385,242.12606 L263.947366,242.881862 C263.832363,242.881862 263.947366,243.042183 263.947366,243.179602 C264.464584,243.752179 264.828476,244.445367 265.005395,245.195074 C265.127454,246.32608 264.859808,247.46481 264.246374,248.42441 C263.625358,249.248921 259.646251,253.783733 259.416245,254.035667 C259.186238,254.287601 259.071235,254.264698 258.88723,254.035667 C258.703225,253.806636 255.414137,251.035362 254.908123,250.554397 C254.40211,250.073432 250.423003,246.546356 250.308,246.408938 C250.192997,246.271519 250.192997,246.225713 250.308,246.088294 C251.601182,244.219207 253.080738,242.485031 254.724119,240.912196 C257.852203,237.797375 259.324242,237.408023 262.314322,237.408023 C262.74133,237.410756 263.160696,237.521062 263.533355,237.728666 C263.763361,237.728666 264.039369,237.934794 264.338377,237.568344 C264.525922,237.351339 264.67383,237.103289 264.775389,236.835446 C264.775389,236.606415 264.775389,236.583512 264.522382,236.446093 C262.406325,235.094811 259.715253,233.148048 259.577249,233.079339 C259.439245,233.010629 259.393244,232.94192 259.25524,233.079339 C259.117237,233.216757 254.448111,239.148658 252.677064,241.026711 C250.906016,242.904765 242.51079,251.676648 242.257784,251.882776 C242.004777,252.088904 241.912774,252.226323 242.096779,252.363741 L242.694795,252.936318 C242.8558,253.119543 243.062805,253.050834 243.200809,252.936318 C243.642223,252.401601 244.170973,251.944777 244.764851,251.585036 C245.362544,251.344006 246.007648,251.242167 246.650902,251.287296 C247.179916,251.287296 247.984938,251.951485 248.352947,252.226323 C248.720957,252.50116 262.935339,265.670437 263.694359,266.426239" id="Path" fill="#FFFFFF" fill-rule="nonzero"></path>
            <path d="M279.471297,207.401875 C280.431014,207.86969 282.670354,209.132791 282.853157,209.202964 C283.035961,209.273136 283.081661,209.39009 282.99026,209.530434 L282.601803,210.278939 C282.487551,210.512847 282.304748,210.583019 282.167645,210.512847 C281.080875,209.829616 279.769787,209.627037 278.534431,209.951468 C276.350352,210.063717 274.329996,211.170726 273.027483,212.968877 C271.840447,214.61732 271.236124,216.629876 271.313703,218.676224 C271.52097,220.019165 272.348995,221.176999 273.536963,221.78503 C274.724931,222.39306 276.126615,222.376444 277.300509,221.740415 C281.139377,219.986107 282.624653,217.179215 286.440671,214.723185 C290.256689,212.267154 292.290375,212.384108 294.735368,213.109222 C297.399951,214.124787 299.350598,216.494294 299.876709,219.354557 C300.2646,222.559335 299.732628,225.810392 298.345732,228.710863 C296.961927,231.462886 295.121795,233.948034 292.907336,236.055564 C291.033603,237.575964 291.901918,236.804069 291.901918,236.804069 C291.754831,236.896944 291.569146,236.896944 291.422059,236.804069 C291.170705,236.663724 285.366702,233.927004 285.138198,233.880223 C284.909694,233.833441 284.818292,233.739878 284.841143,233.552752 C284.863993,233.365626 285.138198,232.757466 285.2296,232.57034 C285.321001,232.383214 285.526655,232.57034 285.732308,232.57034 C287.346408,233.03366 289.053897,233.03366 290.667996,232.57034 C293.097167,232.000524 295.222202,230.502923 296.609102,228.383393 C297.705921,226.278224 298.528536,221.717024 295.786487,220.009498 C293.044438,218.301972 290.667996,219.097258 287.377538,222.138058 C284.087079,225.178858 280.065408,228.383393 277.711816,228.547128 C273.48485,228.889399 269.720635,225.823168 269.097213,221.529898 C268.206047,216.617837 273.667294,208.290724 276.272241,206.325899 C276.637847,206.068601 277.460462,206.325899 277.140556,206.04521 C276.82065,205.764521 278.48873,206.863887 279.425597,207.331702" id="Path" fill="#FFFFFF"></path>
            <path d="M224.795775,180.084763 C224.933099,181.94154 224.452465,183.3857 221.866197,183.3857 C219.27993,183.3857 218.433099,179.626299 218.433099,177.517367 C218.433099,175.408435 219.005282,171.62611 221.866197,171.62611 C222.673621,171.601423 223.457732,171.899187 224.045845,172.453825 C224.633959,173.008464 224.977842,173.77449 225.001761,174.5832 L228,174.124737 C227.64101,171.056558 224.943797,168.80872 221.866197,169.012868 C217.151408,169.012868 215,173.345349 215,177.517367 C215,181.689385 217.105634,185.998942 221.866197,185.998942 C223.178719,186.026548 224.444882,185.512659 225.367958,184.577705 L225.665493,185.769711 L227.954225,185.769711 L227.954225,177.47152 L221.889085,177.47152 L221.889085,180.084763 L224.75,180.084763" id="Path" fill="#FFFFFF" fill-rule="nonzero"></path>
            <path d="M238.940594,179.062674 L235.313531,179.062674 L237.092409,171.95961 L237.092409,171.95961 L238.848185,179.062674 M239.240924,169 L234.620462,169 L230,186 L233.442244,186 L234.528053,181.738162 L239.471947,181.738162 L240.580858,186 L244,186 L239.240924,169 Z" id="Shape" fill="#FFFFFF" fill-rule="nonzero"></path>
            <path d="M252.2282,176.021521 L252.2282,171.930818 L253.45269,171.930818 C255.055659,171.930818 257.237477,171.741652 257.237477,174.082575 C257.237477,176.423498 255.011132,176.116104 253.675325,176.116104 L252.2282,176.116104 M249,169.022398 L249,186 L252.2282,186 L252.2282,178.906295 L254.699443,178.906295 L257.615955,186 L261,186 L257.794063,178.244215 C259.425957,177.521553 260.500671,175.841877 260.532468,173.964346 C260.519669,172.561067 259.953624,171.227738 258.971921,170.288453 C257.990219,169.349168 256.68276,168.889941 255.367347,169.022398 L249,169.022398 Z" id="Shape" fill="#FFFFFF" fill-rule="nonzero"></path>
            <path d="M269.179673,183.111421 L269.179673,171.95961 L270.377495,171.95961 C273.339383,171.95961 274.733212,173.616992 274.733212,177.192201 C274.733212,181.501393 273.208711,183.206128 270.704174,183.206128 L269.179673,183.206128 M266,169 L266,186 L270.943739,186 C275.647913,186 278,182.28273 278,177.5 C278,172.71727 275.822142,169 269.854809,169 L266,169 Z" id="Shape" fill="#FFFFFF" fill-rule="nonzero"></path>
            <polyline id="Path" fill="#FFFFFF" fill-rule="nonzero" points="292.600427 169 282 169 282 186 293 186 293 183.111421 285.40812 183.111421 285.40812 178.825905 291.378205 178.825905 291.378205 175.937326 285.40812 175.937326 285.40812 171.864903 292.600427 171.864903 292.600427 169"></polyline>
            <polyline id="Path" fill="#FFFFFF" fill-rule="nonzero" points="298 169 298 186 301.266898 186 301.266898 172.33844 301.334489 172.33844 307.485269 186 311 186 311 169 307.733102 169 307.733102 180.222841 307.688042 180.222841 302.79896 169 298 169"></polyline>
            <path d="M33.8863636,180.155184 C33.5909091,181.832515 32.7954545,183.39496 30.8409091,183.39496 C28,183.39496 27.4318182,179.62671 27.4318182,177.512814 C27.4318182,175.398918 28,171.607691 30.8409091,171.607691 C32.8181818,171.607691 33.5909091,173.170136 33.8863636,174.870444 L37,174.456855 C36.7575657,171.238771 34.0044967,168.813585 30.8181818,169.011275 C26.1363636,169.011275 24,173.330976 24,177.489837 C24,181.648698 26.0909091,185.991376 30.8181818,185.991376 C34.0041878,186.16353 36.7458538,183.738198 37,180.522818 L33.8863636,180.155184" id="Path" fill="#FFFFFF" fill-rule="nonzero"></path>
            <path d="M48.5,171.599459 C51.1866667,171.599459 51.7283333,175.372124 51.7283333,177.511502 C51.7283333,179.65088 51.1866667,183.400541 48.5,183.400541 C45.8133333,183.400541 45.2283333,179.627876 45.2283333,177.511502 C45.2283333,175.395129 45.7916667,171.599459 48.5,171.599459 M48.5,169 C44.0366667,169 42,173.324763 42,177.488498 C42,181.652233 43.9933333,186 48.5,186 C53.0066667,186 55,181.652233 55,177.488498 C55,173.324763 53.0066667,169 48.5,169 Z" id="Shape" fill="#FFFFFF" fill-rule="nonzero"></path>
            <polyline id="Path" fill="#FFFFFF" fill-rule="nonzero" points="71 169 67.5909091 169 64.5227273 181.637378 64.4772727 181.637378 61.3863636 169 58 169 63 186 66 186 71 169"></polyline>
            <polyline id="Path" fill="#FFFFFF" fill-rule="nonzero" points="85.5760171 169 75 169 75 186 86 186 86 183.107392 78.4154176 183.107392 78.4154176 178.839609 84.3511777 178.839609 84.3511777 175.947001 78.4154176 175.947001 78.4154176 171.892608 85.5760171 171.892608 85.5760171 169"></polyline>
            <polyline id="Path" fill="#FFFFFF" fill-rule="nonzero" points="90 169 90 186 93.2782609 186 93.2782609 172.343096 93.3008696 172.343096 99.4956522 186 103 186 103 169 99.7217391 169 99.7217391 180.214784 99.6765217 180.214784 94.7930435 169 90 169"></polyline>
            <polyline id="Path" fill="#FFFFFF" fill-rule="nonzero" points="120 169 108 169 108 171.892608 112.338462 171.892608 112.338462 186 115.684615 186 115.684615 171.892608 120 171.892608 120 169"></polyline>
        </g>
    </g>
</svg>